<svg id="Group_5180" data-name="Group 5180" xmlns="http://www.w3.org/2000/svg" xmlns:xlink="http://www.w3.org/1999/xlink" width="193.08" height="184.252" viewBox="0 0 193.08 184.252">
  <defs>
    <clipPath id="clip-path">
      <rect id="Rectangle_1934" data-name="Rectangle 1934" width="193.08" height="184.253" fill="none"/>
    </clipPath>
    <clipPath id="clip-path-3">
      <rect id="Rectangle_1929" data-name="Rectangle 1929" width="23.329" height="7.907" fill="none"/>
    </clipPath>
    <clipPath id="clip-path-4">
      <rect id="Rectangle_1930" data-name="Rectangle 1930" width="9.827" height="6.491" fill="none"/>
    </clipPath>
    <clipPath id="clip-path-5">
      <rect id="Rectangle_1931" data-name="Rectangle 1931" width="13.425" height="18.193" fill="none"/>
    </clipPath>
    <clipPath id="clip-path-6">
      <rect id="Rectangle_1932" data-name="Rectangle 1932" width="18.549" height="18.852" fill="none"/>
    </clipPath>
  </defs>
  <g id="Group_5178" data-name="Group 5178" clip-path="url(#clip-path)">
    <rect id="Rectangle_1916" data-name="Rectangle 1916" width="21.93" height="82.569" transform="translate(11.609 101.392)" fill="#f5f5f5"/>
    <rect id="Rectangle_1917" data-name="Rectangle 1917" width="21.93" height="54.656" transform="translate(130.432 128.85)" fill="#f5f5f5"/>
    <rect id="Rectangle_1918" data-name="Rectangle 1918" width="21.93" height="97.615" transform="translate(163.923 85.89)" fill="#f5f5f5"/>
    <rect id="Rectangle_1919" data-name="Rectangle 1919" width="21.93" height="94.072" transform="translate(93.28 89.433)" fill="#f5f5f5"/>
    <rect id="Rectangle_1920" data-name="Rectangle 1920" width="21.93" height="120.706" transform="translate(49.285 62.8)" fill="#f5f5f5"/>
    <g id="Group_5177" data-name="Group 5177">
      <g id="Group_5176" data-name="Group 5176" clip-path="url(#clip-path)">
        <path id="Path_31148" data-name="Path 31148" d="M251.326,43.187s-.106.112-.32.325l-.956.943-3.7,3.627L232.564,61.524,185.881,106.96l-.082.08-.074-.088L174.309,93.274l-29.3-35.126.157-.009L119.791,96.278l-7.224,10.829-1.921,2.865-.5.734c-.112.164-.173.246-.173.246s.052-.087.159-.255l.484-.743,1.9-2.882,7.178-10.859L145,58.031l.072-.109.084.1,29.317,35.113,11.414,13.679-.156-.008,46.734-45.384,13.826-13.4,3.73-3.6.969-.929c.219-.208.334-.311.334-.311" transform="translate(-87.402 -34.322)" fill="#ececec"/>
        <path id="Path_31149" data-name="Path 31149" d="M269.317,100.015a4.069,4.069,0,1,1-4.069-4.069,4.069,4.069,0,0,1,4.069,4.069" transform="translate(-207.569 -76.252)" fill="#ececec"/>
        <path id="Path_31150" data-name="Path 31150" d="M98.289,357.573A4.069,4.069,0,1,1,94.22,353.5a4.069,4.069,0,0,1,4.069,4.069" transform="translate(-71.646 -280.943)" fill="#ececec"/>
        <path id="Path_31151" data-name="Path 31151" d="M467.722,337.749a4.069,4.069,0,1,1-4.069-4.069,4.069,4.069,0,0,1,4.069,4.069" transform="translate(-365.249 -265.188)" fill="#ececec"/>
        <path id="Path_31152" data-name="Path 31152" d="M797.045,19.872a4.069,4.069,0,1,1-4.069-4.069,4.069,4.069,0,0,1,4.069,4.069" transform="translate(-626.974 -12.559)" fill="#ececec"/>
        <path id="Path_31153" data-name="Path 31153" d="M48.268,57.294a12.9,12.9,0,0,1,3.148-1.368l.649-3.116,5.265-.092.758,3.091a12.9,12.9,0,0,1,3.195,1.257l2.661-1.744,3.788,3.658L66.082,61.7a12.9,12.9,0,0,1,1.368,3.149l3.116.648.093,5.265-3.091.758a12.9,12.9,0,0,1-1.257,3.194l1.744,2.661L64.4,81.163l-2.721-1.649a12.893,12.893,0,0,1-3.149,1.368L57.88,84l-5.265.092L51.857,81a12.909,12.909,0,0,1-3.194-1.257L46,81.486l-3.789-3.658,1.649-2.72a12.9,12.9,0,0,1-1.368-3.149l-3.116-.649-.092-5.265,3.091-.758a12.918,12.918,0,0,1,1.257-3.194L41.89,59.433l3.657-3.788Zm2.807,7.014a5.649,5.649,0,1,0,7.987-.14,5.649,5.649,0,0,0-7.987.14" transform="translate(-31.222 -41.896)" fill="#ececec"/>
        <path id="Path_31154" data-name="Path 31154" d="M463.163,6.649a16.043,16.043,0,0,1,3.913-1.7l.806-3.873,6.544-.115.942,3.842a16.018,16.018,0,0,1,3.971,1.562L482.646,4.2l4.708,4.546-2.05,3.381a16.02,16.02,0,0,1,1.7,3.914l3.873.806.115,6.544-3.842.942a16.03,16.03,0,0,1-1.562,3.97l2.168,3.308-4.546,4.709-3.381-2.05a16.031,16.031,0,0,1-3.914,1.7l-.806,3.873-6.544.115-.942-3.843a16.037,16.037,0,0,1-3.97-1.562l-3.307,2.168-4.708-4.546,2.05-3.381a16.024,16.024,0,0,1-1.7-3.914l-3.873-.806L452,17.528l3.842-.942a16.046,16.046,0,0,1,1.562-3.97l-2.168-3.307L459.781,4.6Zm3.488,8.718a7.021,7.021,0,1,0,9.927-.175,7.021,7.021,0,0,0-9.927.175" transform="translate(-359.22 -0.764)" fill="#f5f5f5"/>
        <path id="Path_31155" data-name="Path 31155" d="M187.489,2.395a6.757,6.757,0,0,1,1.648-.716l.34-1.631L192.232,0l.4,1.618a6.74,6.74,0,0,1,1.672.658l1.393-.913,1.983,1.914L196.813,4.7a6.744,6.744,0,0,1,.716,1.648l1.631.34.048,2.756-1.618.4a6.75,6.75,0,0,1-.658,1.672l.913,1.393-1.914,1.983-1.424-.863a6.746,6.746,0,0,1-1.648.716l-.339,1.631-2.756.048-.4-1.618a6.749,6.749,0,0,1-1.672-.658l-1.393.913-1.983-1.914.863-1.424a6.747,6.747,0,0,1-.716-1.648l-1.631-.339-.048-2.756,1.618-.4a6.758,6.758,0,0,1,.658-1.672l-.913-1.393,1.914-1.983Zm1.469,3.671a2.957,2.957,0,1,0,4.181-.073,2.957,2.957,0,0,0-4.181.073" transform="translate(-145.268 0.001)" fill="#f5f5f5"/>
        <path id="Path_31156" data-name="Path 31156" d="M806.456,140.073a9.139,9.139,0,0,1,2.229-.968l.459-2.206,3.727-.065.536,2.188a9.134,9.134,0,0,1,2.261.89l1.884-1.234,2.682,2.589-1.168,1.926a9.123,9.123,0,0,1,.968,2.229l2.206.459.065,3.727-2.188.536a9.132,9.132,0,0,1-.89,2.261l1.234,1.884-2.589,2.682-1.926-1.168a9.126,9.126,0,0,1-2.229.968l-.459,2.206-3.727.065L809,156.852a9.142,9.142,0,0,1-2.261-.89l-1.883,1.235-2.682-2.589,1.167-1.925a9.137,9.137,0,0,1-.968-2.229l-2.206-.459-.065-3.727,2.188-.537a9.139,9.139,0,0,1,.89-2.261l-1.234-1.884,2.589-2.682Zm1.987,4.965a4,4,0,1,0,5.654-.1,4,4,0,0,0-5.654.1" transform="translate(-635.868 -108.746)" fill="#f5f5f5"/>
        <path id="Path_31157" data-name="Path 31157" d="M193.081,896.338c0,.06-43.226.108-96.536.108C43.217,896.446,0,896.4,0,896.338s43.217-.108,96.545-.108c53.309,0,96.536.048,96.536.108" transform="translate(0 -712.267)" fill="#1a2e35"/>
        <path id="Path_31158" data-name="Path 31158" d="M611.4,794.81h33.979a1.119,1.119,0,0,0,1.116-1.2l-1.7-24.047a1.119,1.119,0,0,0-1.115-1.04l-31.194-.045a1.119,1.119,0,0,0-1.12,1.069l-1.089,24.092a1.119,1.119,0,0,0,1.118,1.17" transform="translate(-485.016 -610.739)" fill="#1a2e35"/>
        <path id="Path_31159" data-name="Path 31159" d="M638.209,794.987c.052,0,.095-5.884.095-13.142s-.042-13.143-.095-13.143-.095,5.883-.095,13.143.042,13.142.095,13.142" transform="translate(-507.133 -610.917)" fill="#375a64"/>
        <path id="Path_31160" data-name="Path 31160" d="M640.535,769.92a.472.472,0,0,0,.051.1l.166.271.656,1.032c.578.891,1.417,2.181,2.549,3.708a29.38,29.38,0,0,0,4.511,4.917,19.3,19.3,0,0,0,3.261,2.229,10.54,10.54,0,0,0,4.043,1.266,9.149,9.149,0,0,0,4.172-.723,13.566,13.566,0,0,0,3.4-2.021,14.815,14.815,0,0,0,4.055-5.268,14,14,0,0,0,1.2-4.33c.023-.265.05-.5.061-.7s0-.374.006-.518,0-.236,0-.318a.448.448,0,0,0-.007-.109.494.494,0,0,0-.013.109c0,.082-.011.187-.019.317s-.015.315-.025.515-.05.436-.078.7a14.408,14.408,0,0,1-1.249,4.282,14.824,14.824,0,0,1-4.043,5.189,13.478,13.478,0,0,1-3.356,1.984,9,9,0,0,1-4.087.706,10.4,10.4,0,0,1-3.972-1.242,19.306,19.306,0,0,1-3.236-2.2,29.908,29.908,0,0,1-4.516-4.864c-1.142-1.513-2-2.791-2.594-3.668l-.685-1.013-.182-.261a.455.455,0,0,0-.067-.085" transform="translate(-509.057 -611.51)" fill="#375a64"/>
        <path id="Path_31161" data-name="Path 31161" d="M709.042,831.679a1.559,1.559,0,1,0,1.559-1.559,1.559,1.559,0,0,0-1.559,1.559" transform="translate(-563.502 -659.727)" fill="#375a64"/>
        <path id="Path_31162" data-name="Path 31162" d="M660.785,741.1a4.153,4.153,0,0,1,2.455-.915,11.01,11.01,0,0,1,6.348,1.291,10.491,10.491,0,0,1,4.149,4.764l-1.225,1.282a8.11,8.11,0,0,0-3.353-4.922,7.679,7.679,0,0,0-5.631-1.342,4.126,4.126,0,0,0-1.531.526,1.816,1.816,0,0,0-.783,2.044,4.535,4.535,0,0,0,1.045,2.424l-2.015.047a10.273,10.273,0,0,1-.441-2.708,3.459,3.459,0,0,1,.982-2.491" transform="translate(-524.369 -588.212)" fill="#1a2e35"/>
        <rect id="Rectangle_1921" data-name="Rectangle 1921" width="12.882" height="5.076" transform="translate(89.414 171.453)" fill="#fafafa"/>
        <rect id="Rectangle_1922" data-name="Rectangle 1922" width="40.457" height="1.063" transform="translate(88.878 170.581)" fill="#375a64"/>
        <rect id="Rectangle_1923" data-name="Rectangle 1923" width="40.269" height="1.063" transform="translate(89.065 176.302)" fill="#375a64"/>
        <path id="Path_31163" data-name="Path 31163" d="M498.367,832.272l.061,6.328h26.978v-6.328Z" transform="translate(-396.071 -661.438)" fill="#375a64"/>
        <path id="Path_31164" data-name="Path 31164" d="M519.018,841.558a1.463,1.463,0,1,1-1.458-1.575,1.52,1.52,0,0,1,1.458,1.575" transform="translate(-410.165 -667.566)" fill="#1a2e35"/>
        <path id="Path_31165" data-name="Path 31165" d="M516.684,842.483a1.8,1.8,0,1,1,1.685-1.8,1.748,1.748,0,0,1-1.685,1.8m0-3.149a1.354,1.354,0,1,0,1.232,1.348,1.3,1.3,0,0,0-1.232-1.348" transform="translate(-409.29 -666.69)" fill="#e1e1e1"/>
        <path id="Path_31166" data-name="Path 31166" d="M447.875,853.493c0,.065-2.647.118-5.911.118s-5.912-.053-5.912-.118,2.646-.118,5.912-.118,5.911.053,5.911.118" transform="translate(-346.547 -678.209)" fill="#1a2e35"/>
        <path id="Path_31167" data-name="Path 31167" d="M447.875,849.186c0,.065-2.647.118-5.911.118s-5.912-.053-5.912-.118,2.646-.118,5.912-.118,5.911.053,5.911.118" transform="translate(-346.547 -674.786)" fill="#1a2e35"/>
        <path id="Path_31168" data-name="Path 31168" d="M447.875,844.879c0,.065-2.647.118-5.911.118s-5.912-.053-5.912-.118,2.646-.118,5.912-.118,5.911.053,5.911.118" transform="translate(-346.547 -671.363)" fill="#1a2e35"/>
        <path id="Path_31169" data-name="Path 31169" d="M447.875,840.572c0,.065-2.647.118-5.911.118s-5.912-.053-5.912-.118,2.646-.118,5.912-.118,5.911.053,5.911.118" transform="translate(-346.547 -667.94)" fill="#1a2e35"/>
        <rect id="Rectangle_1924" data-name="Rectangle 1924" width="12.157" height="3.387" transform="translate(114.186 172.18)" fill="#fff"/>
        <path id="Path_31170" data-name="Path 31170" d="M565.061,843.2a7.784,7.784,0,0,1,0-2.7,7.784,7.784,0,0,1,0,2.7" transform="translate(-448.981 -667.981)" fill="#e1e1e1"/>
        <path id="Path_31171" data-name="Path 31171" d="M572.892,843.2a7.784,7.784,0,0,1,0-2.7,7.78,7.78,0,0,1,0,2.7" transform="translate(-455.205 -667.981)" fill="#e1e1e1"/>
        <path id="Path_31172" data-name="Path 31172" d="M580.723,843.2a7.768,7.768,0,0,1,0-2.7,7.8,7.8,0,0,1,0,2.7" transform="translate(-461.428 -667.981)" fill="#e1e1e1"/>
        <path id="Path_31173" data-name="Path 31173" d="M588.555,843.2a7.784,7.784,0,0,1,0-2.7,7.784,7.784,0,0,1,0,2.7" transform="translate(-467.653 -667.981)" fill="#e1e1e1"/>
        <path id="Path_31174" data-name="Path 31174" d="M596.386,843.2a7.784,7.784,0,0,1,0-2.7,7.784,7.784,0,0,1,0,2.7" transform="translate(-473.876 -667.981)" fill="#e1e1e1"/>
        <path id="Path_31175" data-name="Path 31175" d="M604.217,843.2a7.784,7.784,0,0,1,0-2.7,7.784,7.784,0,0,1,0,2.7" transform="translate(-480.1 -667.981)" fill="#e1e1e1"/>
        <rect id="Rectangle_1925" data-name="Rectangle 1925" width="12.882" height="5.076" transform="translate(91.126 178.049)" fill="#fafafa"/>
        <rect id="Rectangle_1926" data-name="Rectangle 1926" width="40.457" height="1.063" transform="translate(90.589 177.178)" fill="#0963a5"/>
        <rect id="Rectangle_1927" data-name="Rectangle 1927" width="40.269" height="1.063" transform="translate(90.777 182.898)" fill="#0963a5"/>
        <path id="Path_31176" data-name="Path 31176" d="M506.705,864.41l.061,6.328h26.978V864.41Z" transform="translate(-402.698 -686.978)" fill="#0963a5"/>
        <path id="Path_31177" data-name="Path 31177" d="M527.356,873.695a1.463,1.463,0,1,1-1.458-1.575,1.52,1.52,0,0,1,1.458,1.575" transform="translate(-416.791 -693.106)" fill="#1a2e35"/>
        <path id="Path_31178" data-name="Path 31178" d="M525.021,874.62a1.8,1.8,0,1,1,1.685-1.8,1.748,1.748,0,0,1-1.685,1.8m0-3.149a1.354,1.354,0,1,0,1.232,1.348,1.3,1.3,0,0,0-1.232-1.348" transform="translate(-415.915 -692.23)" fill="#e1e1e1"/>
        <path id="Path_31179" data-name="Path 31179" d="M456.214,885.631c0,.065-2.647.118-5.911.118s-5.912-.053-5.912-.118,2.646-.118,5.912-.118,5.911.053,5.911.118" transform="translate(-353.174 -703.75)" fill="#1a2e35"/>
        <path id="Path_31180" data-name="Path 31180" d="M456.214,881.323c0,.065-2.647.118-5.911.118s-5.912-.053-5.912-.118,2.646-.118,5.912-.118,5.911.053,5.911.118" transform="translate(-353.174 -700.326)" fill="#1a2e35"/>
        <path id="Path_31181" data-name="Path 31181" d="M456.214,877.016c0,.065-2.647.118-5.911.118s-5.912-.053-5.912-.118,2.646-.118,5.912-.118,5.911.053,5.911.118" transform="translate(-353.174 -696.904)" fill="#1a2e35"/>
        <path id="Path_31182" data-name="Path 31182" d="M456.214,872.709c0,.065-2.647.118-5.911.118s-5.912-.053-5.912-.118,2.646-.118,5.912-.118,5.911.053,5.911.118" transform="translate(-353.174 -693.481)" fill="#1a2e35"/>
        <rect id="Rectangle_1928" data-name="Rectangle 1928" width="12.157" height="3.387" transform="translate(115.898 178.777)" fill="#fff"/>
        <path id="Path_31183" data-name="Path 31183" d="M573.4,875.34a7.785,7.785,0,0,1,0-2.7,7.785,7.785,0,0,1,0,2.7" transform="translate(-455.608 -693.521)" fill="#e1e1e1"/>
        <path id="Path_31184" data-name="Path 31184" d="M581.23,875.34a7.785,7.785,0,0,1,0-2.7,7.785,7.785,0,0,1,0,2.7" transform="translate(-461.831 -693.521)" fill="#e1e1e1"/>
        <path id="Path_31185" data-name="Path 31185" d="M589.062,875.34a7.781,7.781,0,0,1,0-2.7,7.785,7.785,0,0,1,0,2.7" transform="translate(-468.056 -693.521)" fill="#e1e1e1"/>
        <path id="Path_31186" data-name="Path 31186" d="M596.893,875.34a7.785,7.785,0,0,1,0-2.7,7.785,7.785,0,0,1,0,2.7" transform="translate(-474.279 -693.521)" fill="#e1e1e1"/>
        <path id="Path_31187" data-name="Path 31187" d="M604.724,875.34a7.785,7.785,0,0,1,0-2.7,7.785,7.785,0,0,1,0,2.7" transform="translate(-480.503 -693.521)" fill="#e1e1e1"/>
        <path id="Path_31188" data-name="Path 31188" d="M612.555,875.34a7.785,7.785,0,0,1,0-2.7,7.785,7.785,0,0,1,0,2.7" transform="translate(-486.727 -693.521)" fill="#e1e1e1"/>
        <path id="Path_31189" data-name="Path 31189" d="M290.992,178.121l-3.334-.668a12.968,12.968,0,1,1,3.579-2.963l.006,0Z" transform="translate(-213.297 -121.761)" fill="#fff"/>
        <path id="Path_31190" data-name="Path 31190" d="M290.615,177.745s0-.087.008-.246.021-.4.038-.7l.158-2.689.074.042-.006,0a.048.048,0,0,1-.066-.012.049.049,0,0,1,0-.058,12.925,12.925,0,0,0,2.712-5.576,13.224,13.224,0,0,0,.209-4.083,12.875,12.875,0,0,0-1.332-4.442,13.127,13.127,0,0,0-3.2-4,12.564,12.564,0,0,0-4.889-2.579,13.136,13.136,0,0,0-5.871-.2,12.569,12.569,0,0,0-5.566,2.62,13.19,13.19,0,0,0-2.206,2.272c-.3.432-.6.859-.856,1.307l-.361.686-.178.343-.143.358a13.1,13.1,0,0,0-.988,5.851,12.53,12.53,0,0,0,1.588,5.347,13.153,13.153,0,0,0,3.341,3.932,12.931,12.931,0,0,0,4.134,2.167l1.052.27c.347.081.7.115,1.035.174a11.672,11.672,0,0,0,1.979.116,12.923,12.923,0,0,0,5.97-1.609.048.048,0,0,1,.032-.005l2.455.519.645.14c.146.032.225.054.225.054s-.069-.008-.211-.034l-.638-.117-2.494-.472.032,0a12.888,12.888,0,0,1-6.012,1.678,11.736,11.736,0,0,1-2-.105c-.343-.057-.7-.091-1.049-.17l-1.068-.268a13.069,13.069,0,0,1-4.2-2.18,13.318,13.318,0,0,1-3.406-3.982,12.724,12.724,0,0,1-1.627-5.435,13.3,13.3,0,0,1,1-5.956l.145-.364.181-.349.367-.7c.263-.457.57-.892.871-1.331a13.394,13.394,0,0,1,2.245-2.314,12.781,12.781,0,0,1,5.669-2.665,13.339,13.339,0,0,1,5.975.213,12.752,12.752,0,0,1,4.966,2.633,13.3,13.3,0,0,1,3.232,4.072,13.018,13.018,0,0,1,1.332,4.513,13.325,13.325,0,0,1-.235,4.133,12.9,12.9,0,0,1-2.787,5.605l-.063-.07.006,0a.047.047,0,0,1,.066.012.051.051,0,0,1,.009.031c-.093,1.176-.165,2.086-.215,2.714l-.059.69c-.014.154-.024.227-.024.227" transform="translate(-212.919 -121.385)" fill="#1a2e35"/>
        <path id="Path_31191" data-name="Path 31191" d="M303.494,199.845l1.622-1.736,3.336,2.768,6.148-6.333,1.616,1.626-7.894,7.953Z" transform="translate(-241.198 -154.611)" fill="#63b449"/>
        <path id="Path_31192" data-name="Path 31192" d="M245.109,168.557H234.57l-30.754,18.509c.115.173,3.745,2.8,8.487,6.188l-44.535,82L130.5,258.793l-33,59.315h18.033l22.739-41.537,34.2,15.844,14.5,1.731,39.248-90.994c4.932,3.5,8.72,6.173,8.72,6.173h10.539s-3.073-25.8-3.073-26,2.706-14.767,2.706-14.767" transform="translate(-77.482 -133.959)" fill="#333"/>
        <path id="Path_31193" data-name="Path 31193" d="M245.109,168.557H234.57l-30.754,18.509c.115.173,3.745,2.8,8.487,6.188l-44.535,82L130.5,258.793l-33,59.315h18.033l22.739-41.537,34.2,15.844,14.5,1.731,39.248-90.994c4.932,3.5,8.72,6.173,8.72,6.173h10.539s-3.073-25.8-3.073-26S245.109,168.557,245.109,168.557Z" transform="translate(-77.482 -133.959)" fill="none" stroke="#666766" stroke-width="1"/>
        <path id="Path_31194" data-name="Path 31194" d="M149.473,389.772l33.134-59.823,37.139,16.969,47.9-88.189,14.26,7.491-53.624,99.588-38.032-17.575-22.74,41.537Z" transform="translate(-118.792 -205.622)" fill="#818181"/>
        <path id="Path_31195" data-name="Path 31195" d="M666.816,187.066c.339.509,31.121,22.259,31.121,22.259l-.367-40.768Z" transform="translate(-529.943 -133.959)" fill="#818181"/>
        <path id="Path_31196" data-name="Path 31196" d="M626.012,258.313c0,.06-2.36.108-5.269.108s-5.27-.048-5.27-.108,2.359-.108,5.27-.108,5.269.048,5.269.108" transform="translate(-489.139 -205.205)" fill="#1a2e35"/>
        <path id="Path_31197" data-name="Path 31197" d="M666.123,289.3c0,.06-2.359.108-5.269.108s-5.27-.048-5.27-.108,2.359-.108,5.27-.108,5.269.048,5.269.108" transform="translate(-521.017 -229.83)" fill="#1a2e35"/>
        <path id="Path_31198" data-name="Path 31198" d="M318.441,453.381s-.639.278-.74-.576,1.68-2.632,2.249-3.2a2.171,2.171,0,0,1,2.1-.282c.722.161,3.677.459,4.657,1.088s2.481,3.786,2.794,3.936,9.531.63,9.531.63l-.4,7.555s-9.047-1.724-10.839-2.845-1.557-1.567-2.066-2.612-1.056-2.155-1.056-2.155l-.847-.14-1.358.749s-.16,1.918-1.5,1.869l-.659-.347s-.439.508-.94-.277-.406-.932-.406-.932-.527.652-1.1-.156.571-2.308.571-2.308" transform="translate(-252.486 -356.99)" fill="#c17560"/>
        <path id="Path_31199" data-name="Path 31199" d="M341.285,463.872c0,.006-.033.017-.1.032a1.354,1.354,0,0,1-.3.03,2.161,2.161,0,0,1-1.084-.308,2.888,2.888,0,0,1-1.149-1.274,5.538,5.538,0,0,1-.477-2.117l.146.089a5.46,5.46,0,0,1-3.586.327,1.332,1.332,0,0,1-.695-.323.348.348,0,0,1-.024-.445.742.742,0,0,1,.326-.21c.83-.336,1.592-.6,2.239-.8s1.178-.331,1.546-.415a2.809,2.809,0,0,1,.579-.1,3.357,3.357,0,0,1-.557.184c-.361.109-.883.264-1.521.479s-1.39.49-2.21.834a.577.577,0,0,0-.24.148.14.14,0,0,0,.018.189,1.188,1.188,0,0,0,.59.252,5.363,5.363,0,0,0,3.449-.311l.14-.063.007.152a5.507,5.507,0,0,0,.43,2.051,2.811,2.811,0,0,0,1.056,1.238,2.245,2.245,0,0,0,1.02.35c.255.018.4-.008.4.009" transform="translate(-265.399 -364.273)" fill="#7c4236"/>
        <path id="Path_31200" data-name="Path 31200" d="M326.279,459.763a1.308,1.308,0,0,1-.87.169c-.275,0-.6-.05-.94-.027a1.3,1.3,0,0,0-.944.474,5.017,5.017,0,0,1-1.734,1.25,2.155,2.155,0,0,1-.855.234c-.01-.034.313-.129.79-.373a5.732,5.732,0,0,0,1.644-1.261,1.657,1.657,0,0,1,.5-.39,1.5,1.5,0,0,1,.583-.133,7.247,7.247,0,0,1,.96.073,4.239,4.239,0,0,0,.861-.017" transform="translate(-255.061 -365.345)" fill="#7c4236"/>
        <path id="Path_31201" data-name="Path 31201" d="M326.377,469.789a4.422,4.422,0,0,1-2.926,2.512,8.3,8.3,0,0,0,2.926-2.512" transform="translate(-257.058 -373.358)" fill="#7c4236"/>
        <path id="Path_31202" data-name="Path 31202" d="M332.219,475.436a3.329,3.329,0,0,1-1.834,2.506c-.037-.054.55-.457,1.053-1.154s.719-1.371.781-1.352" transform="translate(-262.568 -377.846)" fill="#7c4236"/>
        <path id="Path_31203" data-name="Path 31203" d="M389.724,397.868l-8.249,14.884-12.8-.22-.962,7.688,13.211,3.239,5.439-5.973Z" transform="translate(-292.233 -316.201)" fill="#048cb4"/>
        <path id="Path_31204" data-name="Path 31204" d="M435.781,472.9c-.064.006-.143-.606-.429-1.3s-.65-1.188-.6-1.228a3.175,3.175,0,0,1,1.029,2.525" transform="translate(-345.51 -373.819)" fill="#1a2e35"/>
        <path id="Path_31205" data-name="Path 31205" d="M480.847,227.167a2.149,2.149,0,0,1-.986-4.16,2.235,2.235,0,0,1,1.879-3.8,2.675,2.675,0,0,1,3.993-2.265,3.008,3.008,0,0,1,3.7-.142,2.139,2.139,0,0,1,1.954,3.594" transform="translate(-380.219 -171.843)" fill="#1a2e35"/>
        <path id="Path_31206" data-name="Path 31206" d="M496.4,229.286l-.472.009A9.116,9.116,0,0,0,487,237.853c-.27,4.411-.511,9.287-.436,11.649.155,4.891,5.063,5.556,5.063,5.556l-.3,5.885.58,4.486,11.284-5.083.637-21.335c.34-5.087-2.338-9.526-7.433-9.724" transform="translate(-386.679 -182.222)" fill="#fbaa82"/>
        <path id="Path_31207" data-name="Path 31207" d="M510.957,347.066a11.868,11.868,0,0,0,6.373-2,6.19,6.19,0,0,1-6.406,3.442Z" transform="translate(-406.05 -274.237)" fill="#d88a68"/>
        <path id="Path_31208" data-name="Path 31208" d="M490.773,233.341s1.231-3.088,2.694-3.832c1.772-.9,2.579,1.048,4.274.538s3.386-1.373,5.153-.089c1.934,1.405,1.061,2.434,1.22,4.6.648,8.79,2.3,11.248,2.68,7.094.041-.455,1.294-.841,1.444-2.763.194-2.492.231-5.515-.358-7.27a6.965,6.965,0,0,0-2.909-3.595c-2.436-1.743-5.736-1.717-7.972-1.448s-6.505,2.93-6.227,6.762" transform="translate(-390.025 -179.963)" fill="#1a2e35"/>
        <path id="Path_31209" data-name="Path 31209" d="M567.063,294.854a1.328,1.328,0,0,1,1.409-1.307c.914.069,1.939.567,1.915,2.454-.042,3.346-3.393,2.614-3.4,2.518,0-.065.043-2.264.073-3.664" transform="translate(-450.608 -233.289)" fill="#fbaa82"/>
        <path id="Path_31210" data-name="Path 31210" d="M514.754,230.689a3.178,3.178,0,0,1-1.4.681,1.091,1.091,0,0,1-1.225-.744c-.044-.232.008-.5-.149-.68-.187-.211-.523-.138-.8-.1a2.657,2.657,0,0,1-2.393-1.871.873.873,0,0,1-1.162.264,3.129,3.129,0,0,1-.82-.7,1.376,1.376,0,0,0-1.159-.552,3.3,3.3,0,0,1-.724.174c-.44-.031-.664-.541-.739-.975s-.136-.942-.513-1.172a1.75,1.75,0,0,0-1.2-.01c-.4.067-.927-.017-1.038-.411a.793.793,0,0,1,.138-.61,2.166,2.166,0,0,1,2.541-.869,27.1,27.1,0,0,0,8.034-1.423,3.032,3.032,0,0,1,2.133,1.744,2.16,2.16,0,0,1,2.5,3.094,2.051,2.051,0,0,1,1.16,1.611,1.174,1.174,0,0,1-1.307,1.225,1.2,1.2,0,0,1-2.045,1.233" transform="translate(-398.49 -175.603)" fill="#1a2e35"/>
        <path id="Path_31211" data-name="Path 31211" d="M513.431,236.274a.18.18,0,0,0,0,.061c.005.04.009.1.025.178a2.115,2.115,0,0,0,.255.64,2.4,2.4,0,0,0,.757.776,2.23,2.23,0,0,0,1.378.364l-.058-.073a1.211,1.211,0,0,0,.085.922,3.468,3.468,0,0,0,.589.811,2.485,2.485,0,0,0,.382.376,1.168,1.168,0,0,0,.534.186,1.221,1.221,0,0,0,1.069-.407l-.126-.033a2.51,2.51,0,0,0,1.1,1.715,1.831,1.831,0,0,0,1.105.338,3.3,3.3,0,0,0,1.078-.258l-.09-.037a2.638,2.638,0,0,0,.812,1.017,1.4,1.4,0,0,0,1.171.295,1.843,1.843,0,0,0,1.39-1.469l-.075.037a1.724,1.724,0,0,0,1.153.147,1.868,1.868,0,0,0,.794-.373,1.623,1.623,0,0,0,.366-.416.8.8,0,0,0,.081-.174,2.02,2.02,0,0,1-.482.546,1.854,1.854,0,0,1-.776.338,1.651,1.651,0,0,1-1.088-.157l-.063-.034-.012.071a1.736,1.736,0,0,1-1.316,1.362,1.275,1.275,0,0,1-1.064-.28,2.512,2.512,0,0,1-.762-.965l-.028-.061-.062.024a3.2,3.2,0,0,1-1.031.246,1.687,1.687,0,0,1-1.021-.315,2.374,2.374,0,0,1-1.038-1.616l-.024-.158-.1.125a1.085,1.085,0,0,1-.944.359,1.042,1.042,0,0,1-.473-.161,2.45,2.45,0,0,1-.36-.353,3.364,3.364,0,0,1-.575-.776,1.1,1.1,0,0,1-.089-.834l.026-.081-.084.007a2.151,2.151,0,0,1-1.32-.329,2.379,2.379,0,0,1-.751-.734,2.579,2.579,0,0,1-.335-.846" transform="translate(-408.041 -187.776)" fill="#375a64"/>
        <path id="Path_31212" data-name="Path 31212" d="M402.239,403.088l6.369-7.025,5.327-16.1c1.087-2.793,2.021-6.339,3.338-8.987a6.257,6.257,0,0,1,3.07-2.92l2.262-1,1.352-2.159c-.779,4.882,6.063,5.483,13.335-.578,0,0,2.4,1.625,5.788,4.433a9.173,9.173,0,0,1,3.387,4.6c1.017,3.684-3.355,14.588-8.115,24.846-1.424,3.068-8.206,16.817-8.206,16.817l-2.441,1.779s-21.583-6.539-23.524-10.123Z" transform="translate(-319.674 -289.536)" fill="#048cb4"/>
        <path id="Path_31213" data-name="Path 31213" d="M419.453,432.534a1.364,1.364,0,0,1,.181-.211l.548-.577,2.054-2.1-.018.03,1.406-4.326c.548-1.634,1.1-3.449,1.666-5.367,1.088-3.761,2.118-7.164,3.068-9.554.461-1.2.894-2.147,1.2-2.8l.371-.74a1.434,1.434,0,0,1,.142-.251,1.471,1.471,0,0,1-.1.27l-.334.756c-.28.66-.69,1.613-1.132,2.817-.912,2.4-1.915,5.8-3,9.56-.562,1.918-1.126,3.739-1.685,5.368l-1.452,4.311-.006.017-.012.012-2.1,2.054-.577.549a1.358,1.358,0,0,1-.211.181" transform="translate(-333.355 -323.171)" fill="#1a2e35"/>
        <path id="Path_31214" data-name="Path 31214" d="M457.071,399.609l-7.464,30.6-7.753,3.856v-7.486l13.417-27.637Z" transform="translate(-351.157 -317.056)" fill="#281f55"/>
        <g id="Group_5166" data-name="Group 5166" transform="translate(91.637 110.4)" opacity="0.3">
          <g id="Group_5165" data-name="Group 5165">
            <g id="Group_5164" data-name="Group 5164" clip-path="url(#clip-path-3)">
              <path id="Path_31215" data-name="Path 31215" d="M446.438,537.848a28.555,28.555,0,0,1,5.892,3.329,36.158,36.158,0,0,0,5.812,3.478,11.146,11.146,0,0,0,6.613.925,6.663,6.663,0,0,0,5.013-4.109Z" transform="translate(-446.438 -537.848)"/>
            </g>
          </g>
        </g>
        <path id="Path_31216" data-name="Path 31216" d="M501.459,355.956l1.908-2.921.749,4,1.9-2.152,9.434-4.413,1.638,3.507-10.423,6.164-2.891-.216-2.108-2.5Z" transform="translate(-398.528 -278.534)" fill="#006a82"/>
        <path id="Path_31217" data-name="Path 31217" d="M501.4,375.6a2.71,2.71,0,0,1,.143.6l.32,1.543-.189-.028.514-.941.795-1.406.1-.18.067.192c.167.477.256.879.331,1.159a1.764,1.764,0,0,1,.1.447,1.2,1.2,0,0,1-.2-.414c-.106-.271-.223-.671-.4-1.124l.169.012-.77,1.42-.524.935-.135.241-.053-.27a8.826,8.826,0,0,1-.264-2.188" transform="translate(-398.465 -298.18)" fill="#1a2e35"/>
        <path id="Path_31218" data-name="Path 31218" d="M506.677,383.809l-1.2-.146c-.325.366-1.121,1.119-1.446,1.484l0,.034.427,2.4a7.83,7.83,0,0,1,2,.161l1.1-1.937Z" transform="translate(-400.571 -304.911)" fill="#281f55"/>
        <path id="Path_31219" data-name="Path 31219" d="M499.227,582.1a11.67,11.67,0,0,1-.969-.938,30.341,30.341,0,0,0-5.054-4.048,11.661,11.661,0,0,1-1.127-.74,1.191,1.191,0,0,1,.336.14c.211.1.509.261.87.471a22.428,22.428,0,0,1,5.084,4.072c.283.307.5.563.649.747a1.187,1.187,0,0,1,.21.3" transform="translate(-391.072 -458.065)" fill="#1a2e35"/>
        <path id="Path_31220" data-name="Path 31220" d="M517.383,383.036l1.333-.657.452,2.334-1.11.1Z" transform="translate(-411.184 -303.891)" fill="#281f55"/>
        <g id="Group_5169" data-name="Group 5169" transform="translate(107.351 76.343)" opacity="0.3">
          <g id="Group_5168" data-name="Group 5168">
            <g id="Group_5167" data-name="Group 5167" clip-path="url(#clip-path-4)">
              <path id="Path_31221" data-name="Path 31221" d="M522.992,373.133v5.285l9.827-6.491-9.145,5.325Z" transform="translate(-522.992 -371.927)"/>
            </g>
          </g>
        </g>
        <path id="Path_31222" data-name="Path 31222" d="M528.865,367.555a4.536,4.536,0,0,1-.571.431c-.38.261-.935.629-1.641,1.054-1.4.863-3.419,1.92-5.59,3.167-.918.532-1.784,1.068-2.563,1.6l-.129.088-.028-.152-.751-4.069.111.035-1.037.967a2.7,2.7,0,0,1-.387.327,2.734,2.734,0,0,1,.337-.378l.995-1.01.086-.087.025.122.821,4.055-.157-.064c.78-.538,1.649-1.08,2.57-1.615,2.18-1.252,4.2-2.285,5.621-3.112.714-.406,1.28-.754,1.673-.993a4.549,4.549,0,0,1,.617-.361" transform="translate(-410.304 -292.109)" fill="#1a2e35"/>
        <path id="Path_31223" data-name="Path 31223" d="M505.49,380.615l-.551-1.349-.91,1.671.389.606Z" transform="translate(-400.571 -301.416)" fill="#281f55"/>
        <path id="Path_31224" data-name="Path 31224" d="M508.5,384.882c.046.043-.611.8-1.318,1.816s-1.2,1.888-1.258,1.859a10.089,10.089,0,0,1,2.576-3.675" transform="translate(-402.069 -305.879)" fill="#1a2e35"/>
        <path id="Path_31225" data-name="Path 31225" d="M507.447,402.257a7.548,7.548,0,0,1-2.012-.339,3.625,3.625,0,0,1,2.012.339" transform="translate(-401.689 -319.384)" fill="#1a2e35"/>
        <path id="Path_31226" data-name="Path 31226" d="M249.7,410.485h0l-6.219-17.577a.676.676,0,0,1,.5-.863l14.365-3.752a.715.715,0,0,1,.834.475l6.536,19.8,20.272,13.315-.974.994-5.186-1.264Z" transform="translate(-193.477 -308.577)" fill="#375a64"/>
        <path id="Path_31227" data-name="Path 31227" d="M341.1,424.072a.494.494,0,0,1-.1-.057l-.3-.187-1.125-.736-4.115-2.74-13.529-9.107-1.074-.726-.03-.021-.011-.035-4.858-14.658-1.436-4.408-.379-1.2-.093-.312a.439.439,0,0,1-.025-.109.457.457,0,0,1,.045.1l.113.306.416,1.185,1.5,4.386,4.922,14.637-.042-.055,1.074.726,13.494,9.159,4.076,2.8,1.1.77.283.2a.493.493,0,0,1,.093.076" transform="translate(-249.568 -309.773)" fill="#1a2e35"/>
        <path id="Path_31228" data-name="Path 31228" d="M285.975,492.263c0-.06,2.822-.241,6.309-.406s6.317-.25,6.32-.191-2.822.241-6.31.406-6.317.25-6.319.191" transform="translate(-227.275 -390.731)" fill="#1a2e35"/>
        <path id="Path_31229" data-name="Path 31229" d="M290.709,441.034c.25.8.11,1.551-.314,1.684s-.97-.405-1.221-1.2-.11-1.551.314-1.684.97.405,1.221,1.2" transform="translate(-229.719 -349.534)" fill="#e1e1e1"/>
        <path id="Path_31230" data-name="Path 31230" d="M380.436,464.24s-.537.267-.62-.589c-.074-.759,1.748-1.883,2.43-2.3s2.12-.132,2.853-.036a8.8,8.8,0,0,1,4.034,2.043c.746.895,1.257,3.182,1.528,3.4s9.45,3.828,9.45,3.828l-2.089,7.271s-8.426-3.719-9.919-5.215-1.163-1.878-1.424-3.011-.543-2.338-.543-2.338l-.793-.328-1.492.424a3.271,3.271,0,0,1-.567,1.009,1.169,1.169,0,0,1-1.753-.021.905.905,0,0,1-1.126-.592,1.792,1.792,0,0,1-.043-.883s-.679.133-.684-.712a4.021,4.021,0,0,1,.757-1.946" transform="translate(-301.745 -366.472)" fill="#c17560"/>
        <path id="Path_31231" data-name="Path 31231" d="M392.283,480.791c0,.036-.308.024-.78.128a3.623,3.623,0,0,0-2.686,2.368c-.162.455-.189.761-.225.758a1.646,1.646,0,0,1,.08-.8,3.407,3.407,0,0,1,2.8-2.472,1.647,1.647,0,0,1,.807.022" transform="translate(-308.812 -382.061)" fill="#7c4236"/>
        <path id="Path_31232" data-name="Path 31232" d="M386.743,473.086c0,.038-.334-.017-.84.1a3.758,3.758,0,0,0-1.729.989,8.544,8.544,0,0,0-1.228,1.629,3.8,3.8,0,0,1-.478.715,3.13,3.13,0,0,1,.346-.791,6.786,6.786,0,0,1,1.21-1.707,3.515,3.515,0,0,1,1.851-.985,1.505,1.505,0,0,1,.869.049" transform="translate(-303.959 -375.916)" fill="#7c4236"/>
        <path id="Path_31233" data-name="Path 31233" d="M386.633,464.759c0,.036-.289,0-.731.079a3.941,3.941,0,0,0-1.582.71,9.28,9.28,0,0,0-1.292,1.208c-.311.337-.509.543-.532.523a2.433,2.433,0,0,1,.416-.622,6.691,6.691,0,0,1,1.281-1.284,3.521,3.521,0,0,1,1.687-.686,1.346,1.346,0,0,1,.752.072" transform="translate(-303.982 -369.294)" fill="#7c4236"/>
        <path id="Path_31234" data-name="Path 31234" d="M468.741,384.637c2.58.5,4.26,2.772,4.785,5.607.745,4.022-8.474,23.028-10.192,27.177a8.45,8.45,0,0,1-8.145,5.273c-2.332-.054-18.67-7.717-18.67-7.717l2.4-8.291L453.432,411l5.753-16.186" transform="translate(-346.918 -305.685)" fill="#048cb4"/>
        <path id="Path_31235" data-name="Path 31235" d="M458.7,394.81s-.027.1-.091.289l-.287.841-1.124,3.226-4.177,11.856-.025.07-.072-.021L438.4,406.781l.123-.067-2.389,8.293-.056-.124c3.813,1.771,7.895,3.629,12.149,5.419,1.728.717,3.44,1.431,5.17,1.982l.651.187c.216.056.431.075.647.116a9.015,9.015,0,0,0,3.863-.792,7.943,7.943,0,0,0,3.707-3.42c.406-.731.7-1.523,1.048-2.281l1.011-2.248c2.682-5.911,5.06-11.255,6.766-15.856a35.007,35.007,0,0,0,1.862-6.333,5.1,5.1,0,0,0,.036-1.388,9.563,9.563,0,0,0-.318-1.258,7.839,7.839,0,0,0-.992-2.034,5.641,5.641,0,0,0-2.379-1.992,5.009,5.009,0,0,0-.773-.269c-.179-.047-.27-.077-.27-.077s.094.015.275.056a4.529,4.529,0,0,1,.784.25,5.616,5.616,0,0,1,2.431,1.984,7.874,7.874,0,0,1,1.021,2.05,9.632,9.632,0,0,1,.331,1.271,5.19,5.19,0,0,1-.026,1.424,34.751,34.751,0,0,1-1.838,6.369c-1.69,4.616-4.055,9.969-6.728,15.885l-1.007,2.248c-.342.755-.636,1.544-1.054,2.3a8.149,8.149,0,0,1-3.8,3.512,9.22,9.22,0,0,1-3.957.813c-.23-.04-.469-.063-.692-.121l-.662-.19c-1.748-.556-3.458-1.27-5.19-1.988-4.26-1.793-8.341-3.653-12.155-5.429l-.081-.038.025-.086,2.4-8.29.028-.1.1.028,14.511,4.329-.1.049,4.243-11.833,1.164-3.213.308-.833c.071-.187.112-.281.112-.281" transform="translate(-346.434 -305.685)" fill="#1a2e35"/>
        <path id="Path_31236" data-name="Path 31236" d="M521.22,519.133c-.067.012-.289-1.444-.936-3.125s-1.439-2.92-1.381-2.956a3.454,3.454,0,0,1,.563.784,13.142,13.142,0,0,1,1.653,4.337,3.451,3.451,0,0,1,.1.96" transform="translate(-412.389 -407.741)" fill="#1a2e35"/>
        <path id="Path_31237" data-name="Path 31237" d="M561.24,384.8c.013.038-.534.214-1.355.628a12,12,0,0,0-1.384.826A11.732,11.732,0,0,0,555.693,389a11.928,11.928,0,0,0-.857,1.364c-.434.811-.622,1.354-.659,1.34a1.465,1.465,0,0,1,.1-.391,7.73,7.73,0,0,1,.42-1.018,10.349,10.349,0,0,1,.831-1.411,10.854,10.854,0,0,1,2.858-2.793,10.334,10.334,0,0,1,1.429-.8,7.688,7.688,0,0,1,1.028-.4,1.46,1.46,0,0,1,.393-.095" transform="translate(-440.422 -305.812)" fill="#1a2e35"/>
        <path id="Path_31238" data-name="Path 31238" d="M116.935,524.9l-7.846-9.805s30.35-25,33.219-26.789c2.173-1.352,6.59-3.148,10.771-1.744s11.26,6.3,13.869,7.882,25.324,15.656,27.78,19.1c0,0-4.943,8.941-8.179,10.439-2.535,1.174-9.842-.578-14.112-3.174s-23.859-19.372-23.859-19.372Z" transform="translate(-86.697 -386.283)" fill="#1a2e35"/>
        <path id="Path_31239" data-name="Path 31239" d="M161.553,578.529l10.6,7.614,20.4-33.242,20.6,9.385L199.3,539.147s-11.169.131-12.925-.066c-2.252-.253-6.364,3.3-8.608,7.641-1.951,3.772-16.211,31.807-16.211,31.807" transform="translate(-128.392 -428.417)" fill="#1a2e35"/>
        <path id="Path_31240" data-name="Path 31240" d="M300.587,556.186c-.043.041-4.694-4.7-10.387-10.6s-10.276-10.707-10.233-10.748,4.693,4.7,10.388,10.6,10.275,10.706,10.232,10.747" transform="translate(-222.5 -425.058)" fill="#375a64"/>
        <g id="Group_5172" data-name="Group 5172" transform="translate(39.116 113.84)" opacity="0.3">
          <g id="Group_5171" data-name="Group 5171">
            <g id="Group_5170" data-name="Group 5170" clip-path="url(#clip-path-5)">
              <path id="Path_31241" data-name="Path 31241" d="M190.564,572.8s9.126-17.058,13.425-18.193c0,0-6.219,8.427-8.3,14.393Z" transform="translate(-190.564 -554.607)"/>
            </g>
          </g>
        </g>
        <path id="Path_31242" data-name="Path 31242" d="M218.4,543.341a7.242,7.242,0,0,0-1.2-.229,6.128,6.128,0,0,0-3.2.682,10.368,10.368,0,0,0-3.615,3.278,52.184,52.184,0,0,0-3.238,5.128c-2.07,3.781-3.667,7.353-4.941,9.879-.626,1.269-1.161,2.281-1.535,2.979l-.446.795a1.73,1.73,0,0,1-.168.27,1.8,1.8,0,0,1,.13-.29l.409-.813c.351-.708.865-1.73,1.473-3.006,1.238-2.541,2.812-6.122,4.889-9.916a49.874,49.874,0,0,1,3.268-5.142,10.378,10.378,0,0,1,3.707-3.3,6.059,6.059,0,0,1,3.28-.628,3.484,3.484,0,0,1,1.19.313" transform="translate(-158.988 -431.538)" fill="#375a64"/>
        <path id="Path_31243" data-name="Path 31243" d="M109.845,701.229l-5.806,10.7s-12.944-1.529-14.094.417L110.978,723.1l8.73-16.861Z" transform="translate(-71.483 -557.293)" fill="#1a2e35"/>
        <path id="Path_31244" data-name="Path 31244" d="M186.737,764.181a.911.911,0,0,1-1.179,1.387c-.954-.861.408-2.25,1.244-1.32" transform="translate(-147.211 -607.131)" fill="#e1e1e1"/>
        <path id="Path_31245" data-name="Path 31245" d="M110.978,763.646l.813-1.734L91.321,752.25s-1.145-.071-1.376.642Z" transform="translate(-71.483 -597.84)" fill="#375a64"/>
        <path id="Path_31246" data-name="Path 31246" d="M157.2,751.844c-.049.1.441.414.777,1,.352.58.385,1.158.5,1.166.587-.357-.684-2.51-1.277-2.168" transform="translate(-124.931 -597.489)" fill="#fff"/>
        <path id="Path_31247" data-name="Path 31247" d="M144.155,750.9c-.074.088.281.49.408,1.1.145.609-.008,1.124.1,1.171.674-.138.161-2.436-.505-2.274" transform="translate(-114.557 -596.765)" fill="#fff"/>
        <path id="Path_31248" data-name="Path 31248" d="M131.513,752.271c.567.073.652-2.2.082-2.171.027.07-.051,2.105-.082,2.171" transform="translate(-104.518 -596.132)" fill="#fff"/>
        <path id="Path_31249" data-name="Path 31249" d="M164.291,739.9c.074,0,2.086,1.179,2.117,1.241.324-.482-1.857-1.759-2.117-1.241" transform="translate(-130.568 -587.93)" fill="#fff"/>
        <path id="Path_31250" data-name="Path 31250" d="M60.277,608.313l-9.949,7.015s-10.923-7.112-12.817-5.877l14.082,18.967,14.923-11.748Z" transform="translate(-29.811 -483.449)" fill="#1a2e35"/>
        <path id="Path_31251" data-name="Path 31251" d="M118.4,665.937a.911.911,0,1,0,.029.088" transform="translate(-92.705 -528.803)" fill="#e1e1e1"/>
        <path id="Path_31252" data-name="Path 31252" d="M51.593,631.932l1.5-1.194L39.029,613s-.994-.571-1.518-.034Z" transform="translate(-29.811 -486.964)" fill="#375a64"/>
        <path id="Path_31253" data-name="Path 31253" d="M99.246,640.639c-.09.072.211.566.252,1.243.058.676-.169,1.209-.069,1.267.685-.059.5-2.553-.184-2.51" transform="translate(-78.861 -509.139)" fill="#fff"/>
        <path id="Path_31254" data-name="Path 31254" d="M85.919,633.926c-.105.045.035.564-.123,1.169-.14.61-.5,1-.432,1.093.665.175,1.225-2.111.556-2.262" transform="translate(-67.834 -503.805)" fill="#fff"/>
        <path id="Path_31255" data-name="Path 31255" d="M72.421,629.641c.476.317,1.561-1.686,1.036-1.91-.007.074-.98,1.865-1.036,1.91" transform="translate(-57.556 -498.881)" fill="#fff"/>
        <g id="Group_5175" data-name="Group 5175" transform="translate(57.98 110.664)" opacity="0.3">
          <g id="Group_5174" data-name="Group 5174">
            <g id="Group_5173" data-name="Group 5173" clip-path="url(#clip-path-6)">
              <path id="Path_31256" data-name="Path 31256" d="M301.018,557.983s-11.6-8.83-14.366-12.234a33.267,33.267,0,0,1-4.183-6.618Z" transform="translate(-282.469 -539.131)"/>
            </g>
          </g>
        </g>
      </g>
    </g>
  </g>
</svg>
