<svg id="Group_5163" data-name="Group 5163" xmlns="http://www.w3.org/2000/svg" xmlns:xlink="http://www.w3.org/1999/xlink" width="166.958" height="166.958" viewBox="0 0 166.958 166.958">
  <defs>
    <clipPath id="clip-path">
      <rect id="Rectangle_1915" data-name="Rectangle 1915" width="166.959" height="166.959" fill="none"/>
    </clipPath>
  </defs>
  <g id="Group_5162" data-name="Group 5162" clip-path="url(#clip-path)">
    <path id="Path_31126" data-name="Path 31126" d="M149.968,210.968a65.217,65.217,0,1,1,46.115-19.1,64.79,64.79,0,0,1-46.115,19.1m0-123.969a58.752,58.752,0,1,0,58.752,58.752A58.819,58.819,0,0,0,149.968,87" transform="translate(-66.489 -63.18)" fill="#787878"/>
    <path id="Path_31127" data-name="Path 31127" d="M49.856,51.517a3.221,3.221,0,0,1-2.285-.947L14.56,17.559a3.232,3.232,0,1,1,4.571-4.571L52.142,46a3.232,3.232,0,0,1-2.285,5.518" transform="translate(-10.68 -9.447)" fill="#787878"/>
    <path id="Path_31128" data-name="Path 31128" d="M4.577,22.582A3.233,3.233,0,0,1,1.36,19.619L.012,3.5A3.232,3.232,0,0,1,3.5.012L19.619,1.36A3.232,3.232,0,1,1,19.081,7.8L6.773,6.772,7.8,19.08A3.233,3.233,0,0,1,4.85,22.57q-.137.011-.273.011" transform="translate(-0.001 0)" fill="#787878"/>
    <path id="Path_31129" data-name="Path 31129" d="M614.245,619.049a3.222,3.222,0,0,1-2.285-.947l-33.011-33.011a3.232,3.232,0,0,1,4.571-4.571l33.01,33.011a3.232,3.232,0,0,1-2.285,5.518" transform="translate(-453.452 -454.686)" fill="#787878"/>
    <path id="Path_31130" data-name="Path 31130" d="M689.364,692.6q-.134,0-.27-.011l-16.117-1.348a3.232,3.232,0,0,1,.539-6.442l12.308,1.03-1.029-12.308a3.232,3.232,0,1,1,6.442-.539l1.348,16.117a3.233,3.233,0,0,1-3.221,3.5" transform="translate(-525.637 -525.639)" fill="#787878"/>
    <path id="Path_31131" data-name="Path 31131" d="M15.274,617.478a3.232,3.232,0,0,1-2.285-5.518L46,578.95a3.232,3.232,0,0,1,4.571,4.571l-33.011,33.01a3.222,3.222,0,0,1-2.285.947" transform="translate(-9.447 -453.453)" fill="#787878"/>
    <path id="Path_31132" data-name="Path 31132" d="M3.232,692.6a3.233,3.233,0,0,1-3.221-3.5l1.348-16.117a3.232,3.232,0,0,1,6.442.539L6.772,685.825,19.08,684.8a3.232,3.232,0,0,1,.539,6.442L3.5,692.586c-.09.007-.18.011-.27.011" transform="translate(0 -525.638)" fill="#787878"/>
    <path id="Path_31133" data-name="Path 31133" d="M582.805,53.089a3.232,3.232,0,0,1-2.285-5.518L613.53,14.56a3.232,3.232,0,0,1,4.571,4.571L585.09,52.142a3.221,3.221,0,0,1-2.285.947" transform="translate(-454.684 -10.68)" fill="#787878"/>
    <path id="Path_31134" data-name="Path 31134" d="M688.019,22.583c-.091,0-.181,0-.273-.011a3.233,3.233,0,0,1-2.952-3.49l1.029-12.308L673.516,7.8a3.232,3.232,0,0,1-.539-6.442L689.094.012a3.232,3.232,0,0,1,3.49,3.49L691.237,19.62a3.233,3.233,0,0,1-3.218,2.963" transform="translate(-525.637 -0.001)" fill="#787878"/>
    <path id="Path_31135" data-name="Path 31135" d="M227.663,449.1l4.53-17.293a6.216,6.216,0,0,1,2.752-3.726l13.981-8.692,1.257,11.724,9.695,17.983Z" transform="translate(-178.605 -329.019)" fill="#048cb4"/>
    <path id="Path_31136" data-name="Path 31136" d="M437.287,449.08l-4.53-17.293a6.228,6.228,0,0,0-2.749-3.726l-14-8.7-1.254,11.732-9.7,17.99Z" transform="translate(-317.777 -328.993)" fill="#048cb4"/>
    <path id="Path_31137" data-name="Path 31137" d="M297.647,273.681s-2.692,2.859-4-3.971c-1.417-7.3-1.346-11.253,1.155-12.089a1.516,1.516,0,0,1,2.018.725q.026.055.047.111Z" transform="translate(-229.647 -201.994)" fill="#ffd7af"/>
    <path id="Path_31138" data-name="Path 31138" d="M404.25,402.207v8.5a12.538,12.538,0,0,1-1.842,6.518l-8.218,13.506v.018l-.9,1.477H390.1V400.29l.128-.025h.018l10.648-2.409,1.8,1.307a3.8,3.8,0,0,1,1.552,3.043" transform="translate(-306.042 -312.125)" fill="#f0f0f0"/>
    <path id="Path_31139" data-name="Path 31139" d="M339.723,400.328v31.95h-3.188l-.762-1.268-8.356-13.726a12.372,12.372,0,0,1-1.817-6.51v-8.5a3.748,3.748,0,0,1,1.534-3.043l1.8-1.307,10.708,2.409Z" transform="translate(-255.439 -312.177)" fill="#f0f0f0"/>
    <path id="Path_31140" data-name="Path 31140" d="M341.085,378.623v5.165a6.242,6.242,0,0,0,2.3,4.846l4.5,3.677a6.248,6.248,0,0,0,7.892.018l4.573-3.694a6.252,6.252,0,0,0,2.324-4.867v-5.636Z" transform="translate(-267.587 -296.65)" fill="#ffd7af"/>
    <path id="Path_31141" data-name="Path 31141" d="M341.085,382.417a13.793,13.793,0,0,0,21.575-.468v-3.818l-21.575.489Z" transform="translate(-267.587 -296.65)" fill="#f5cda5"/>
    <path id="Path_31142" data-name="Path 31142" d="M326.727,213.644c9.858,0,17.413-10.329,17.413-27.423,0-21.327-6.259-26.272-17.413-26.272s-17.417,4.959-17.417,26.272c0,17.094,7.559,27.423,17.417,27.423" transform="translate(-242.659 -125.483)" fill="#fed9ae"/>
    <path id="Path_31143" data-name="Path 31143" d="M465.817,273.678s2.7,2.859,4.006-3.971c1.4-7.3,1.342-11.253-1.158-12.089a1.505,1.505,0,0,0-2.006.713c-.019.04-.036.081-.052.123Z" transform="translate(-365.441 -201.99)" fill="#ffd7af"/>
    <path id="Path_31144" data-name="Path 31144" d="M391.139,159.982v53.684c9.741-.156,17.2-10.439,17.2-27.409,0-21.185-6.177-26.212-17.2-26.272" transform="translate(-306.855 -125.509)" fill="#fed9ae"/>
    <path id="Path_31145" data-name="Path 31145" d="M380.651,512.263v.018l-.9,1.477h-6.146l-.762-1.268,1.831-10.711h4.173Z" transform="translate(-292.502 -393.653)" fill="#3c505a"/>
    <path id="Path_31146" data-name="Path 31146" d="M375.547,470.315l3.153-2.058a2.508,2.508,0,0,0,.971-2.975l-1.459-3.872a2.5,2.5,0,0,0-2.338-1.615h-.648a2.5,2.5,0,0,0-2.341,1.615l-1.459,3.872a2.508,2.508,0,0,0,.971,2.975Z" transform="translate(-291.263 -360.717)" fill="#3c505a"/>
    <path id="Path_31147" data-name="Path 31147" d="M333.356,158.592a15.563,15.563,0,0,1,4.431,7.764,13.647,13.647,0,0,1,.418,6.879l-2.866,14.6s-.779-5.4-1.031-9.829c-.708-12.4-4.484-13.527-8.5-13.527a41.114,41.114,0,0,0-7.261,1.541H318.5a41.2,41.2,0,0,0-7.261-1.541c-4.031,0-7.839,1.112-8.54,13.527-.248,4.431-1.01,9.829-1.01,9.829l-2.834-14.523a13.665,13.665,0,0,1,.46-7.01,16.649,16.649,0,0,1,4.368-7.715,28.464,28.464,0,0,1,29.7,0" transform="translate(-234.255 -121.136)"/>
  </g>
</svg>
