<svg id="Group_5161" data-name="Group 5161" xmlns="http://www.w3.org/2000/svg" xmlns:xlink="http://www.w3.org/1999/xlink" width="169.575" height="169.342" viewBox="0 0 169.575 169.342">
  <defs>
    <clipPath id="clip-path">
      <rect id="Rectangle_1914" data-name="Rectangle 1914" width="169.575" height="169.342" fill="none"/>
    </clipPath>
  </defs>
  <g id="Group_5160" data-name="Group 5160" clip-path="url(#clip-path)">
    <path id="Path_31048" data-name="Path 31048" d="M121.341,234.73c-4.787,0-8.55-1.337-11.185-3.971-6.117-6.117-5.113-18.381,2.826-34.534,7.667-15.6,20.926-33.228,37.334-49.637,26.395-26.393,55.725-44.129,72.981-44.129,4.785,0,8.548,1.336,11.183,3.972,6.117,6.115,5.115,18.378-2.823,34.527-7.665,15.6-20.922,33.227-37.331,49.636-26.4,26.395-55.727,44.129-72.986,44.129M223.3,105.93c-16.4,0-44.737,17.321-70.523,43.11-16.144,16.153-29.17,33.451-36.677,48.718-7.127,14.5-8.4,25.632-3.488,30.54,1.959,1.96,4.9,2.955,8.727,2.955,16.4,0,44.736-17.321,70.527-43.111,16.145-16.148,29.17-33.443,36.673-48.71,7.125-14.5,8.393-25.633,3.483-30.54-1.959-1.961-4.9-2.955-8.724-2.955" transform="translate(-86.456 -83.41)" fill="#787878"/>
    <path id="Path_31049" data-name="Path 31049" d="M223.294,234.74c-17.257,0-46.587-17.735-72.983-44.129-16.4-16.4-29.666-34.036-37.333-49.636-7.938-16.154-8.947-28.417-2.825-34.533,2.638-2.638,6.4-3.971,11.184-3.971,17.259,0,46.59,17.735,72.984,44.131,16.4,16.4,29.667,34.034,37.333,49.633,7.938,16.152,8.94,28.417,2.823,34.535-2.638,2.638-6.4,3.971-11.183,3.971M121.336,105.947c-3.83,0-6.768.993-8.726,2.953-4.911,4.909-3.64,16.042,3.487,30.543,7.5,15.264,20.526,32.564,36.673,48.71,25.785,25.784,54.127,43.111,70.524,43.111,3.828,0,6.768-.995,8.724-2.954,4.912-4.911,3.643-16.043-3.483-30.543C221.032,182.5,208,165.2,191.863,149.058c-25.786-25.785-54.129-43.112-70.527-43.112" transform="translate(-86.452 -83.42)" fill="#787878"/>
    <path id="Path_31050" data-name="Path 31050" d="M54.773,32.436a21.085,21.085,0,1,1,0-.008Z" transform="translate(-10.257 -9.237)" fill="#01a9e1"/>
    <path id="Path_31051" data-name="Path 31051" d="M65.05,150.785l1.467-5.6a2.013,2.013,0,0,1,.891-1.207l4.528-2.815.407,3.8,3.14,5.824Z" transform="translate(-52.956 -114.918)" fill="#3c505a"/>
    <path id="Path_31052" data-name="Path 31052" d="M142.072,150.775l-1.467-5.6a2.017,2.017,0,0,0-.89-1.207l-4.532-2.818-.406,3.8-3.141,5.826Z" transform="translate(-107.163 -114.908)" fill="#3c505a"/>
    <path id="Path_31053" data-name="Path 31053" d="M91.065,85.636s-.872.926-1.294-1.286c-.459-2.364-.436-3.644.374-3.915a.491.491,0,0,1,.653.235c.005.012.011.024.015.036Z" transform="translate(-72.836 -65.443)" fill="#ffd7af"/>
    <path id="Path_31054" data-name="Path 31054" d="M130.6,134.488v2.753a4.062,4.062,0,0,1-.6,2.111l-2.661,4.374v.006l-.291.478h-1.032V133.867l.041-.008h.006l3.448-.78.584.423a1.233,1.233,0,0,1,.5.985" transform="translate(-102.592 -108.337)" fill="#f0f0f0"/>
    <path id="Path_31055" data-name="Path 31055" d="M106.384,133.884v10.347h-1.032l-.247-.411-2.706-4.445a4.008,4.008,0,0,1-.588-2.108v-2.753a1.214,1.214,0,0,1,.5-.985l.582-.423,3.468.78Z" transform="translate(-82.882 -108.359)" fill="#f0f0f0"/>
    <path id="Path_31056" data-name="Path 31056" d="M107.622,125.835v1.673a2.021,2.021,0,0,0,.744,1.569l1.458,1.191a2.024,2.024,0,0,0,2.556.006l1.481-1.2a2.024,2.024,0,0,0,.753-1.576v-1.825Z" transform="translate(-87.613 -102.31)" fill="#ffd7af"/>
    <path id="Path_31057" data-name="Path 31057" d="M107.622,127.063a4.467,4.467,0,0,0,6.987-.151v-1.237l-6.987.158Z" transform="translate(-87.613 -102.31)" fill="#f5cda5"/>
    <path id="Path_31058" data-name="Path 31058" d="M101.335,61.171c3.192,0,5.639-3.345,5.639-8.881,0-6.907-2.027-8.508-5.639-8.508s-5.64,1.606-5.64,8.508c0,5.536,2.448,8.881,5.64,8.881" transform="translate(-77.904 -35.642)" fill="#fed9ae"/>
    <path id="Path_31059" data-name="Path 31059" d="M154.44,85.635s.874.926,1.3-1.286c.453-2.364.435-3.644-.375-3.915a.488.488,0,0,0-.65.231c-.006.013-.012.026-.017.04Z" transform="translate(-125.727 -65.441)" fill="#ffd7af"/>
    <path id="Path_31060" data-name="Path 31060" d="M126.41,43.794V61.179c3.154-.051,5.569-3.381,5.569-8.876,0-6.861-2-8.489-5.569-8.508" transform="translate(-102.908 -35.652)" fill="#ffe1b9"/>
    <path id="Path_31061" data-name="Path 31061" d="M122.07,175.481v.006l-.291.478h-1.99l-.247-.411.593-3.469h1.351Z" transform="translate(-97.317 -140.092)" fill="#3c505a"/>
    <path id="Path_31062" data-name="Path 31062" d="M120.337,159.735l1.021-.667a.812.812,0,0,0,.314-.963l-.473-1.254a.81.81,0,0,0-.757-.523h-.21a.811.811,0,0,0-.758.523L119,158.1a.812.812,0,0,0,.314.963Z" transform="translate(-96.835 -127.264)" fill="#3c505a"/>
    <path id="Path_31063" data-name="Path 31063" d="M102.931,43.058a5.041,5.041,0,0,1,1.435,2.515A4.419,4.419,0,0,1,104.5,47.8l-.928,4.728s-.252-1.748-.334-3.183c-.229-4.015-1.452-4.381-2.753-4.381a13.327,13.327,0,0,0-2.352.5H98.12a13.362,13.362,0,0,0-2.351-.5c-1.305,0-2.538.36-2.766,4.381-.08,1.435-.327,3.183-.327,3.183l-.918-4.7a4.423,4.423,0,0,1,.149-2.27,5.392,5.392,0,0,1,1.414-2.5,9.218,9.218,0,0,1,9.617,0" transform="translate(-74.631 -33.95)" fill="#8b5e3c"/>
    <path id="Path_31064" data-name="Path 31064" d="M24.448,46.393a23.2,23.2,0,1,1,23.2-23.2h0a23.221,23.221,0,0,1-23.2,23.194m0-42.174A18.979,18.979,0,1,0,43.427,23.2,18.979,18.979,0,0,0,24.448,4.219" transform="translate(-1.02 0)" fill="#787878"/>
    <path id="Path_31065" data-name="Path 31065" d="M712.627,33.337A21.088,21.088,0,1,1,691.54,12.248h0a21.085,21.085,0,0,1,21.086,21.083Z" transform="translate(-545.803 -9.971)" fill="#48bea1"/>
    <path id="Path_31066" data-name="Path 31066" d="M682.314,47.306a23.2,23.2,0,1,1,23.2-23.2v0a23.223,23.223,0,0,1-23.2,23.194m0-42.174A18.979,18.979,0,1,0,701.29,24.113h0a19,19,0,0,0-18.976-18.98" transform="translate(-536.576 -0.743)" fill="#787878"/>
    <path id="Path_31067" data-name="Path 31067" d="M768.508,147.369l3.364-2.672a5.982,5.982,0,0,1-.688-2.672h-5.348a5.905,5.905,0,0,1-.688,2.672Z" transform="translate(-622.895 -115.621)" fill="#ffd7af"/>
    <path id="Path_31068" data-name="Path 31068" d="M773.873,142.026h-5.348c-.021.208-.051.4-.07.574a4.317,4.317,0,0,0,5.49,0c-.026-.18-.051-.371-.072-.574" transform="translate(-625.587 -115.621)" fill="#f5cda5"/>
    <path id="Path_31069" data-name="Path 31069" d="M748.707,95.99s-.864.918-1.282-1.262c-.444-2.333-.424-3.6.373-3.864a.479.479,0,0,1,.641.222.423.423,0,0,1,.018.042Z" transform="translate(-608.229 -73.932)" fill="#ffd7af"/>
    <path id="Path_31070" data-name="Path 31070" d="M758.843,71.835c3.146,0,5.566-3.3,5.566-8.764,0-6.818-2-8.4-5.566-8.4s-5.567,1.581-5.567,8.4c0,5.465,2.419,8.764,5.567,8.764" transform="translate(-613.23 -44.508)" fill="#fed9ae"/>
    <path id="Path_31071" data-name="Path 31071" d="M811.28,95.99s.859.918,1.279-1.262c.445-2.333.428-3.6-.369-3.864a.483.483,0,0,0-.645.224c-.006.013-.012.026-.017.039Z" transform="translate(-660.45 -73.931)" fill="#ffd7af"/>
    <path id="Path_31072" data-name="Path 31072" d="M783.577,54.672V71.83c3.118-.05,5.5-3.336,5.5-8.759,0-6.768-1.974-8.374-5.5-8.4" transform="translate(-637.897 -44.508)" fill="#ffe1b9"/>
    <path id="Path_31073" data-name="Path 31073" d="M754,46.887c-6.346,0-6.841,6.222-6.547,8.464a5.163,5.163,0,0,0,1.032,2.2s.23-3.034,2.2-3.9,4.841-.4,6.233-2.5c1.633,2.486,2.36,3.533,2.678,6.4,1.815-1.9,3.257-10.6-5.594-10.668" transform="translate(-608.44 -38.169)" fill="#cc5525"/>
    <path id="Path_31074" data-name="Path 31074" d="M770.813,37.416c0,1.2-1.606,2.167-3.584,2.167s-3.588-.972-3.588-2.167,1.606-2.167,3.588-2.167,3.584.973,3.584,2.167" transform="translate(-621.668 -28.696)" fill="#cc5525"/>
    <path id="Path_31075" data-name="Path 31075" d="M763.629,160.258l-4.474-.6,4.474,7.8,4.474-7.8Z" transform="translate(-618.016 -129.976)" fill="#e6e6e6"/>
    <path id="Path_31076" data-name="Path 31076" d="M760.754,148.646l-.507.248-1.11,1.8,3.3,4.244,1.178-3.651-2.939-2.314Z" transform="translate(-618.001 -121.011)" fill="#f0f0f0"/>
    <path id="Path_31077" data-name="Path 31077" d="M786.084,148.646l.507.248,1.106,1.8-3.3,4.244-1.173-3.651,2.938-2.314Z" transform="translate(-637.611 -121.011)" fill="#f0f0f0"/>
    <path id="Path_31078" data-name="Path 31078" d="M733.737,159.66,729.873,162a1.992,1.992,0,0,0-.9,1.234l-1.033,4.22h10.285Z" transform="translate(-592.601 -129.977)" fill="#3c505a"/>
    <path id="Path_31079" data-name="Path 31079" d="M787.665,159.66,791.533,162a2.005,2.005,0,0,1,.906,1.234l1.027,4.22H783.2Z" transform="translate(-637.586 -129.977)" fill="#3c505a"/>
    <path id="Path_31080" data-name="Path 31080" d="M716.086,693.759A21.087,21.087,0,1,1,695,672.672h0a21.084,21.084,0,0,1,21.086,21.081Z" transform="translate(-548.621 -547.611)" fill="#01a9e1"/>
    <path id="Path_31081" data-name="Path 31081" d="M726.363,812.115l1.469-5.6a2.016,2.016,0,0,1,.89-1.207l4.53-2.817.4,3.8,3.14,5.824Z" transform="translate(-591.32 -653.297)" fill="#3c505a"/>
    <path id="Path_31082" data-name="Path 31082" d="M803.409,812.093l-1.469-5.6a2.019,2.019,0,0,0-.891-1.207l-4.53-2.816-.406,3.8-3.14,5.825Z" transform="translate(-645.546 -653.277)" fill="#3c505a"/>
    <path id="Path_31083" data-name="Path 31083" d="M752.387,746.951s-.872.926-1.3-1.286c-.452-2.36-.436-3.647.374-3.914a.491.491,0,0,1,.655.232.382.382,0,0,1,.015.036Z" transform="translate(-611.208 -603.808)" fill="#ffd7af"/>
    <path id="Path_31084" data-name="Path 31084" d="M791.936,795.831v2.753a4.087,4.087,0,0,1-.594,2.113l-2.661,4.37v.009l-.289.477h-1.032V795.21l.042-.008h.008l3.441-.779.591.423a1.231,1.231,0,0,1,.5.99" transform="translate(-640.976 -646.727)" fill="#f0f0f0"/>
    <path id="Path_31085" data-name="Path 31085" d="M767.7,795.177v10.348h-1.032l-.247-.41-2.7-4.444a4.027,4.027,0,0,1-.592-2.112v-2.753a1.21,1.21,0,0,1,.5-.99l.583-.423,3.47.779Z" transform="translate(-621.246 -646.702)" fill="#f0f0f0"/>
    <path id="Path_31086" data-name="Path 31086" d="M768.948,787.134v1.67a2.025,2.025,0,0,0,.742,1.569l1.458,1.193a2.029,2.029,0,0,0,2.557,0l1.484-1.2a2.032,2.032,0,0,0,.75-1.576v-1.824Z" transform="translate(-625.988 -640.659)" fill="#ffd7af"/>
    <path id="Path_31087" data-name="Path 31087" d="M768.948,788.4a4.455,4.455,0,0,0,6.982-.151v-1.232l-6.982.156Z" transform="translate(-625.988 -640.699)" fill="#f5cda5"/>
    <path id="Path_31088" data-name="Path 31088" d="M762.631,722.484c3.195,0,5.637-3.344,5.637-8.881,0-6.9-2.025-8.508-5.637-8.508s-5.641,1.606-5.641,8.508c0,5.537,2.452,8.881,5.641,8.881" transform="translate(-616.253 -574.006)" fill="#fed9ae"/>
    <path id="Path_31089" data-name="Path 31089" d="M815.771,746.953s.872.926,1.294-1.286c.459-2.36.436-3.647-.377-3.914a.489.489,0,0,0-.651.231c-.005.012-.011.024-.015.036Z" transform="translate(-664.106 -603.811)" fill="#ffd7af"/>
    <path id="Path_31090" data-name="Path 31090" d="M787.723,705.095V722.48c3.156-.046,5.566-3.378,5.566-8.878,0-6.857-2-8.488-5.566-8.508" transform="translate(-641.273 -574.006)" fill="#ffe1b9"/>
    <path id="Path_31091" data-name="Path 31091" d="M783.381,836.792v.009l-.289.477h-2l-.246-.41.6-3.47h1.35Z" transform="translate(-635.677 -678.456)" fill="#3c505a"/>
    <path id="Path_31092" data-name="Path 31092" d="M781.651,821.056l1.022-.667a.814.814,0,0,0,.314-.965l-.473-1.249a.8.8,0,0,0-.756-.523h-.213a.814.814,0,0,0-.759.523l-.469,1.249a.809.809,0,0,0,.314.965Z" transform="translate(-635.2 -665.638)" fill="#3c505a"/>
    <path id="Path_31093" data-name="Path 31093" d="M764.271,704.345a5.039,5.039,0,0,1,1.438,2.517,4.431,4.431,0,0,1,.133,2.225l-.93,4.725s-.257-1.746-.332-3.181c-.229-4.015-1.454-4.377-2.753-4.377a13.261,13.261,0,0,0-2.354.492h-.012a13.473,13.473,0,0,0-2.356-.495c-1.305,0-2.538.36-2.765,4.38-.079,1.435-.327,3.18-.327,3.18l-.918-4.7a4.422,4.422,0,0,1,.15-2.27,5.363,5.363,0,0,1,1.416-2.5,9.215,9.215,0,0,1,9.615,0" transform="translate(-613.017 -572.288)" fill="#8b5e3c"/>
    <path id="Path_31094" data-name="Path 31094" d="M685.772,707.716a23.2,23.2,0,1,1,23.2-23.2,23.2,23.2,0,0,1-23.2,23.2m0-42.174a18.979,18.979,0,1,0,18.979,18.98,18.979,18.979,0,0,0-18.979-18.98" transform="translate(-539.394 -538.374)" fill="#787878"/>
    <path id="Path_31095" data-name="Path 31095" d="M53.5,692.479a21.086,21.086,0,1,1,0-.009Z" transform="translate(-9.222 -546.567)" fill="#48bea1"/>
    <path id="Path_31096" data-name="Path 31096" d="M23.193,706.446a23.2,23.2,0,1,1,23.2-23.193h0a23.222,23.222,0,0,1-23.2,23.194m0-42.176a18.98,18.98,0,1,0,18.98,18.982,18.98,18.98,0,0,0-18.98-18.982" transform="translate(0 -537.34)" fill="#787878"/>
    <path id="Path_31097" data-name="Path 31097" d="M109.348,806.5l3.364-2.675a5.932,5.932,0,0,1-.688-2.674h-5.355a5.907,5.907,0,0,1-.688,2.674Z" transform="translate(-86.277 -652.202)" fill="#ffd7af"/>
    <path id="Path_31098" data-name="Path 31098" d="M114.744,801.148H109.4c-.022.21-.046.4-.07.574a4.322,4.322,0,0,0,5.491,0c-.026-.18-.054-.369-.073-.574" transform="translate(-89 -652.202)" fill="#f5cda5"/>
    <path id="Path_31099" data-name="Path 31099" d="M89.56,755.139s-.858.918-1.278-1.262c-.444-2.334-.429-3.6.371-3.868a.485.485,0,0,1,.645.234c.005.011.01.023.014.034Z" transform="translate(-71.631 -610.533)" fill="#ffd7af"/>
    <path id="Path_31100" data-name="Path 31100" d="M99.715,730.957c3.149,0,5.563-3.3,5.563-8.763,0-6.815-2-8.4-5.563-8.4s-5.568,1.584-5.568,8.4c0,5.465,2.418,8.763,5.568,8.763" transform="translate(-76.644 -581.089)" fill="#fed9ae"/>
    <path id="Path_31101" data-name="Path 31101" d="M152.138,755.139s.86.918,1.28-1.262c.445-2.334.428-3.6-.371-3.868a.484.484,0,0,0-.644.233c-.005.011-.01.023-.015.035Z" transform="translate(-123.853 -610.533)" fill="#ffd7af"/>
    <path id="Path_31102" data-name="Path 31102" d="M124.454,713.795v17.158c3.116-.046,5.5-3.337,5.5-8.759,0-6.768-1.973-8.374-5.5-8.4" transform="translate(-101.316 -581.089)" fill="#ffe1b9"/>
    <path id="Path_31103" data-name="Path 31103" d="M94.884,706.02c-6.346,0-6.837,6.223-6.538,8.462a5.189,5.189,0,0,0,1.032,2.208s.229-3.039,2.2-3.9,4.841-.4,6.235-2.5c1.631,2.486,2.359,3.533,2.678,6.4,1.813-1.9,3.252-10.6-5.6-10.668" transform="translate(-71.868 -574.759)" fill="#cc5525"/>
    <path id="Path_31104" data-name="Path 31104" d="M111.659,696.547c0,1.2-1.606,2.167-3.586,2.167s-3.586-.968-3.586-2.167,1.606-2.163,3.586-2.163,3.586.968,3.586,2.163" transform="translate(-85.061 -565.287)" fill="#cc5525"/>
    <path id="Path_31105" data-name="Path 31105" d="M104.507,819.386l-4.474-.6,4.474,7.8,4.474-7.8Z" transform="translate(-81.435 -666.558)" fill="#e6e6e6"/>
    <path id="Path_31106" data-name="Path 31106" d="M101.636,807.781l-.507.248-1.108,1.8,3.3,4.25,1.177-3.647-2.94-2.318Z" transform="translate(-81.426 -657.602)" fill="#f0f0f0"/>
    <path id="Path_31107" data-name="Path 31107" d="M126.954,807.781l.506.248,1.107,1.8-3.3,4.25-1.172-3.647,2.938-2.318Z" transform="translate(-101.024 -657.602)" fill="#f0f0f0"/>
    <path id="Path_31108" data-name="Path 31108" d="M74.6,818.782l-3.867,2.347a1.993,1.993,0,0,0-.906,1.235l-1.032,4.22H79.074Z" transform="translate(-56.005 -666.557)" fill="#3c505a"/>
    <path id="Path_31109" data-name="Path 31109" d="M128.56,818.782l3.868,2.347a2,2,0,0,1,.906,1.232l1.026,4.225H124.089Z" transform="translate(-101.019 -666.557)" fill="#3c505a"/>
    <path id="Path_31110" data-name="Path 31110" d="M337.158,296.6a36.9,36.9,0,1,1-36.9-36.906h0a36.9,36.9,0,0,1,36.9,36.906" transform="translate(-214.391 -211.412)" fill="#c8c8c8"/>
    <path id="Path_31111" data-name="Path 31111" d="M355.512,507.841l2.583-9.858a3.569,3.569,0,0,1,1.568-2.126l7.97-4.952.711,6.683,5.527,10.253Z" transform="translate(-289.417 -399.638)" fill="#3c505a"/>
    <path id="Path_31112" data-name="Path 31112" d="M491.064,507.841l-2.581-9.858a3.567,3.567,0,0,0-1.568-2.126l-7.972-4.952-.716,6.685L472.7,507.84Z" transform="translate(-384.821 -399.638)" fill="#3c505a"/>
    <path id="Path_31113" data-name="Path 31113" d="M401.3,393.207s-1.537,1.63-2.278-2.261c-.8-4.16-.77-6.417.658-6.892a.859.859,0,0,1,1.144.409c.01.022.02.044.028.066Z" transform="translate(-324.41 -312.585)" fill="#ffd7af"/>
    <path id="Path_31114" data-name="Path 31114" d="M470.871,479.169v4.844a7.166,7.166,0,0,1-1.052,3.715l-4.681,7.7-.516.842h-1.813v-18.2l.075-.015,6.07-1.37,1.032.746a2.159,2.159,0,0,1,.886,1.736" transform="translate(-376.764 -388.065)" fill="#f0f0f0"/>
    <path id="Path_31115" data-name="Path 31115" d="M428.271,478.068v18.207h-1.814l-.435-.72-4.763-7.819a7.124,7.124,0,0,1-1.032-3.715v-4.849a2.135,2.135,0,0,1,.874-1.736l1.023-.746,6.1,1.37Z" transform="translate(-342.101 -388.066)" fill="#f0f0f0"/>
    <path id="Path_31116" data-name="Path 31116" d="M430.434,463.933v2.942a3.569,3.569,0,0,0,1.311,2.764l2.565,2.094a3.567,3.567,0,0,0,4.5.009l2.6-2.1a3.565,3.565,0,0,0,1.325-2.775v-3.212Z" transform="translate(-350.409 -377.452)" fill="#ffd7af"/>
    <path id="Path_31117" data-name="Path 31117" d="M430.434,466.1a7.863,7.863,0,0,0,12.3-.266v-2.18l-12.3.276Z" transform="translate(-350.409 -377.452)" fill="#f5cda5"/>
    <path id="Path_31118" data-name="Path 31118" d="M419.375,350.152c5.621,0,9.925-5.882,9.925-15.627,0-12.152-3.567-14.971-9.925-14.971s-9.925,2.818-9.925,14.971c0,9.75,4.31,15.627,9.925,15.627" transform="translate(-333.327 -260.144)" fill="#fed9ae"/>
    <path id="Path_31119" data-name="Path 31119" d="M512.839,393.205s1.533,1.63,2.279-2.261c.8-4.16.766-6.417-.659-6.892a.863.863,0,0,0-1.149.41q-.015.032-.028.065Z" transform="translate(-417.494 -312.583)" fill="#ffd7af"/>
    <path id="Path_31120" data-name="Path 31120" d="M463.523,319.554v30.592c5.552-.084,9.8-5.948,9.8-15.621,0-12.074-3.522-14.935-9.8-14.971" transform="translate(-377.347 -260.144)" fill="#ffe1b9"/>
    <path id="Path_31121" data-name="Path 31121" d="M455.851,551.273h0l-.516.842h-3.5l-.435-.72,1.044-6.107h2.38Z" transform="translate(-367.476 -443.91)" fill="#3c505a"/>
    <path id="Path_31122" data-name="Path 31122" d="M452.81,523.618l1.8-1.176a1.429,1.429,0,0,0,.553-1.7l-.829-2.2a1.427,1.427,0,0,0-1.335-.918h-.369a1.425,1.425,0,0,0-1.333.918l-.831,2.2a1.427,1.427,0,0,0,.553,1.7Z" transform="translate(-366.639 -421.392)" fill="#3c505a"/>
    <path id="Path_31123" data-name="Path 31123" d="M422.157,318.284c1.094.624,1.98,2.766,2.524,4.428a7.731,7.731,0,0,1,.236,3.914l-1.632,8.326s-.444-3.079-.587-5.606c-.4-7.074-2.553-7.707-4.852-7.707a23.539,23.539,0,0,0-4.136.876h-.031a23.523,23.523,0,0,0-4.14-.876c-2.294,0-4.462.633-4.86,7.707-.144,2.524-.574,5.606-.574,5.606l-1.625-8.277a7.782,7.782,0,0,1,.264-4c.556-1.637,1.44-3.728,2.491-4.395,5.64-2.97,10.8-3.381,16.924,0" transform="translate(-327.532 -257.169)" fill="#8b5e3c"/>
    <path id="Path_31124" data-name="Path 31124" d="M300.243,264.642A31.957,31.957,0,1,1,268.284,296.6a31.957,31.957,0,0,1,31.959-31.958m0-4.949a36.9,36.9,0,1,0,36.9,36.91v0a36.9,36.9,0,0,0-36.9-36.906" transform="translate(-214.375 -211.412)" fill="#787878"/>
    <path id="Path_31125" data-name="Path 31125" d="M228.529,168.83h-.586a.112.112,0,0,1-.027,0h-.146a.1.1,0,0,1-.025,0h-.1a.05.05,0,0,0-.018,0h-.215a.121.121,0,0,1-.029,0h-.077a.42.42,0,0,1-.057,0h-.008a.153.153,0,0,0-.032,0h-.369c-.588.018-1.176.046-1.759.084h-.11a.045.045,0,0,1-.017,0h-.037a.029.029,0,0,0-.014,0h-.015a.051.051,0,0,0-.018,0h-.018a.034.034,0,0,0-.016,0h-.115a.112.112,0,0,1-.027,0h-.034a.136.136,0,0,0-.03,0h-.076l-.369.028a.869.869,0,0,0,.068,1.737h.07c1.388-.115,2.8-.167,4.2-.167a.869.869,0,1,0,0-1.738m-8.516.681a.779.779,0,0,0-.136.013c-1.032.165-2.048.36-3.058.584l-.057.013h-.007l-.029.006h-.01a.038.038,0,0,0-.016,0h-.01l-.026.007h-.028l-.022.007h-.076l-.025.007h-.037l-.028.007h-.007l-.029.007-.029.006-.031.007-.064.016q-.329.076-.657.157a.868.868,0,0,0,.207,1.712.906.906,0,0,0,.209-.025c1.354-.333,2.739-.616,4.118-.839a.869.869,0,0,0-.138-1.729m-8.292,2.045a.854.854,0,0,0-.276.046q-.581.195-1.157.4l-.1.033c-.02.009-.041.016-.062.023l-.032.013-.061.023-.03.013-.059.021-.028.012-.028.01-.025.008h-.006l-.028.01h-.007a.079.079,0,0,1-.024.008.107.107,0,0,0-.025.008h-.008l-.025.01h-.008l-.022.009h-.009a.083.083,0,0,0-.022.008h-.01l-.024.008h-.009l-.018.007h-.01l-.022.008h-.012l-.022.008h-.014l-.015.006-.015.007-.02.006h-.014a.054.054,0,0,1-.021.009l-.014.007a.029.029,0,0,0-.014,0l-.02.006-.016.007-.014.007h-.014l-.021.008h-.013l-.02.008-.016.007h-.025l-.024.01h-.01l-.022.008h-.013l-.016.006h-.009a.1.1,0,0,0-.025.008h-.01l-.024.01H209.1l-.026.012h-.008l-.051.018h-.008l-.029.01h-.007l-.053.021-.033.013-.016.007-.031.013-.033.013-.018.006-.034.013-.091.036c-.013.007-.022.009-.034.015a.06.06,0,0,0-.018.008l-.036.013-.055.023-.036.015-.056.023-.037.014a.452.452,0,0,0-.056.023.233.233,0,0,0-.033.015l-.054.023a.185.185,0,0,1-.037.015l-.056.022-.036.015-.055.023a.25.25,0,0,0-.036.014l-.055.023-.036.017a.368.368,0,0,0-.055.023l-.056.023-.034.015-.053.023-.034.015-.055.023a.229.229,0,0,0-.034.014l-.055.023-.037.017-.014.006a.87.87,0,1,0,.663,1.608l.025-.011c1.282-.548,2.6-1.052,3.928-1.491a.87.87,0,0,0-.276-1.693M204,174.676a.856.856,0,0,0-.4.1.183.183,0,0,0-.029.015l-.026.012-.025.013-.024.013h-.009l-.023.014h-.009l-.016.008-.015.008-.016.008a.027.027,0,0,1-.011.006l-.02.01-.014.009-.012.006-.021.01-.01.006-.016.009-.028.014h-.007l-.03.015q-1.731.93-3.381,1.982a.869.869,0,0,0,.936,1.465c1.178-.75,2.4-1.461,3.634-2.113a.87.87,0,0,0-.407-1.639m-7.206,4.588a.863.863,0,0,0-.523.176l-.026.02-.026.02q-1.19.9-2.327,1.867h0a.23.23,0,0,1-.023.022l-.022.018-.022.018-.021.02-.007.006-.016.012-.01.008-.015.013-.01.012-.017.014-.012.008-.009.009-.022.018c-.252.216-.5.438-.754.659a.87.87,0,0,0,1.161,1.3c1.043-.928,2.135-1.827,3.249-2.669a.867.867,0,0,0-.525-1.561m-6.375,5.683a.867.867,0,0,0-.629.268q-.726.76-1.424,1.549l-.065.075-.022.025a.61.61,0,0,0-.043.048l-.021.023-.021.025a.122.122,0,0,0-.02.023.219.219,0,0,1-.019.022.15.15,0,0,1-.021.024l-.018.022-.018.023a.17.17,0,0,1-.02.021v.007l-.017.018-.018.021-.006.007c-.007.007-.012.015-.018.021v.006l-.014.017-.007.007-.017.018-.007.008-.016.02-.007.008-.013.014a.032.032,0,0,0-.009.012l-.014.016-.008.008-.014.018-.009.008-.011.013-.012.014-.012.013a.04.04,0,0,1-.009.01.11.11,0,0,1-.014.017.039.039,0,0,1-.009.01l-.009.013-.014.015-.009.013-.009.011-.015.016a.043.043,0,0,1-.009.01.037.037,0,0,1-.009.012l-.016.018-.007.008-.017.021-.007.007-.01.015-.006.006a.12.12,0,0,1-.019.022v.006l-.02.023v.007l-.012.015-.02.025-.021.025c-.012.015-.024.03-.037.044s-.015.017-.022.028h0l-.038.043a.19.19,0,0,1-.024.028l-.037.044-.025.029-.127.154-.291.355a.87.87,0,0,0,1.351,1.094c.88-1.084,1.816-2.144,2.779-3.154a.868.868,0,0,0-.627-1.469m-5.385,6.63a.866.866,0,0,0-.717.375l-.011.017-.032.046a.316.316,0,0,1-.02.03l-.034.051q-.649.952-1.262,1.933c-.007.01-.014.021-.021.033l-.031.051a.259.259,0,0,0-.02.029l-.03.048a.309.309,0,0,0-.018.029l-.021.032a.058.058,0,0,0-.009.015v.008l-.014.023-.006.009c0,.008-.009.015-.014.023a.026.026,0,0,0,0,.009l-.008.014-.007.013a.142.142,0,0,0-.012.018.049.049,0,0,0-.008.01l-.009.017a.08.08,0,0,1-.009.014l-.007.013-.01.016a.077.077,0,0,1-.008.015l-.008.013-.006.01-.013.021-.006.01-.011.018a.015.015,0,0,1-.008.013l-.009.014v.012l-.013.021a.027.027,0,0,0-.007.012l-.013.021-.006.008-.009.017a.028.028,0,0,0-.006.01l-.013.021a.015.015,0,0,1,0,.008l-.014.024v.006l-.011.021a.216.216,0,0,0-.015.025v.006l-.015.025-.014.024a.182.182,0,0,0-.015.025v.006a.2.2,0,0,1-.015.024v.006c0,.006-.009.017-.015.025s-.01.018-.015.028-.01.02-.016.028h0l-.033.055a.26.26,0,0,0-.016.028c-.01.018-.022.038-.032.054a.166.166,0,0,0-.017.026l-.033.056-.017.029c-.068.115-.136.229-.2.355a.869.869,0,1,0,1.508.864c.7-1.209,1.446-2.409,2.238-3.556a.867.867,0,0,0-.226-1.206l0,0a.851.851,0,0,0-.49-.154m-4.244,7.408a.868.868,0,0,0-.787.5q-.918,1.96-1.688,4a.869.869,0,0,0,.508,1.12.882.882,0,0,0,.305.056.87.87,0,0,0,.813-.566c.49-1.305,1.039-2.608,1.633-3.873a.871.871,0,0,0-.418-1.157.891.891,0,0,0-.368-.081m-3,8a.87.87,0,0,0-.836.633c-.1.344-.194.688-.286,1.042a.05.05,0,0,1-.008.032.186.186,0,0,0-.008.03l-.007.031a.147.147,0,0,0-.007.03.043.043,0,0,1-.007.028c-.007.009,0,0,0,.006a.2.2,0,0,0-.007.028.015.015,0,0,0,0,.008l-.007.025a.043.043,0,0,1-.007.028c-.007.01,0,0,0,.008a.041.041,0,0,1-.006.025.028.028,0,0,0,0,.008.126.126,0,0,0,0,.021.029.029,0,0,1,0,.008.034.034,0,0,1-.007.025.071.071,0,0,1,0,.012v.036s0,.009,0,.014a.073.073,0,0,1,0,.013.031.031,0,0,1-.006.023s0,.009,0,.014,0,.008,0,.013a.029.029,0,0,1-.007.023c-.007.007,0,.009,0,.013V209a.067.067,0,0,0,0,.015c0,.008,0,.015,0,.023a.058.058,0,0,0,0,.011l-.007.028a.02.02,0,0,0,0,.008v.016a.038.038,0,0,0,0,.009l-.007.03a.054.054,0,0,0,0,.008.215.215,0,0,1-.014.054.03.03,0,0,1,0,.006.331.331,0,0,1-.008.033.233.233,0,0,1-.014.059.12.12,0,0,1-.009.036v.018a.059.059,0,0,1-.009.038c-.181.744-.344,1.491-.5,2.246a.87.87,0,0,0,.688,1.019.965.965,0,0,0,.17.016.87.87,0,0,0,.852-.7c.271-1.369.6-2.743.984-4.086a.87.87,0,0,0-.6-1.073.847.847,0,0,0-.237-.033m-1.661,8.374a.869.869,0,0,0-.863.764c-.115,1.032-.209,2.075-.267,3.127v.1h0v.02a.058.058,0,0,0,0,.008v.029a.073.073,0,0,0,0,.013v.015a.126.126,0,0,1,0,.021.076.076,0,0,1,0,.016v.015a.071.071,0,0,0,0,.012.194.194,0,0,0,0,.025v.1a.029.029,0,0,0,0,.008.117.117,0,0,1,0,.023v.177c-.009.205-.018.411-.024.614a.868.868,0,0,0,.836.9h.033a.869.869,0,0,0,.868-.839c.048-1.4.154-2.81.312-4.193a.868.868,0,0,0-.763-.962h0a.87.87,0,0,0-.1-.006m-.294,8.539h-.04a.869.869,0,0,0-.829.9q.046,1,.127,1.991v.163a.015.015,0,0,0,0,.008.147.147,0,0,0,0,.029v.028a.07.07,0,0,1,0,.013.143.143,0,0,1,0,.025.046.046,0,0,1,0,.012v.015a.159.159,0,0,0,0,.023.036.036,0,0,0,0,.013v.054a.07.07,0,0,1,0,.013v.093a.015.015,0,0,1,0,.006v.025a.2.2,0,0,0,0,.03v.063a.014.014,0,0,0,0,.006v.062a.523.523,0,0,0,.006.1q.076.776.172,1.544a.87.87,0,0,0,1.721-.218c-.176-1.383-.294-2.791-.359-4.189a.868.868,0,0,0-.867-.831m1.071,8.472a.886.886,0,0,0-.179.018.871.871,0,0,0-.672,1.031h0c.017.078.033.157.049.229a.072.072,0,0,0,.006.033l.006.031c0,.01,0,.019.007.029a.014.014,0,0,0,0,.007l.006.029.007.025v.008l.007.025a.033.033,0,0,1,0,.01v.035a.174.174,0,0,1,0,.02v.013a.175.175,0,0,0,0,.024.067.067,0,0,1,0,.015.05.05,0,0,1,0,.01.041.041,0,0,0,.007.027.036.036,0,0,1,0,.009.062.062,0,0,0,0,.018.08.08,0,0,0,.007.034c.007.009,0,0,0,.007q.263,1.178.574,2.34a.236.236,0,0,0,.016.061l.01.039h0a.337.337,0,0,0,.014.057.015.015,0,0,1,0,.008.088.088,0,0,0,.009.028.054.054,0,0,0,0,.008v.016a.067.067,0,0,1,0,.015.182.182,0,0,1,0,.02v.014a.083.083,0,0,0,0,.014.043.043,0,0,0,.006.025.1.1,0,0,1,0,.01.036.036,0,0,0,.006.023c.006.009,0,0,0,.008l.006.023a.019.019,0,0,1,0,.008c0,.009.006.018.008.027a.168.168,0,0,1,.007.029.06.06,0,0,0,.008.031c.07.249.141.5.215.746a.869.869,0,1,0,1.682-.442c0-.017-.009-.034-.015-.051-.4-1.339-.743-2.709-1.032-4.076a.872.872,0,0,0-.85-.688m2.424,8.189a.871.871,0,0,0-.81,1.183q.774,2,1.7,3.922c0,.012.008.02.014.03a.2.2,0,0,1,.013.028h0a.87.87,0,0,0,1.565-.759c-.608-1.262-1.172-2.554-1.676-3.853a.868.868,0,0,0-.811-.556m3.72,7.685a.87.87,0,0,0-.748,1.31c0,.008.012.018.017.028l.033.058c0,.01.012.02.016.029l.032.055.016.025.033.055.016.025.031.053a.178.178,0,0,0,.016.028l.016.025.015.025.016.025v.007l.015.025.014.025.016.025c0,.009.01.017.014.025a.206.206,0,0,1,.015.025c0,.008.01.016.016.026a.145.145,0,0,0,.016.027l.016.025c.006.008.01.017.016.025l.016.025.016.025.016.025v.006l.016.025.016.028a.118.118,0,0,0,.017.028.283.283,0,0,1,.015.027c.01.019.022.038.033.057s.012.02.018.028q.832,1.346,1.739,2.638a.866.866,0,0,0,.711.369.855.855,0,0,0,.5-.157.868.868,0,0,0,.213-1.209h0c-.8-1.147-1.569-2.333-2.277-3.534a.867.867,0,0,0-.75-.43m4.912,6.989a.853.853,0,0,0-.555.2.869.869,0,0,0-.115,1.224q.824.992,1.694,1.95l.069.073.022.023.044.047.021.023.044.046.022.024.022.023.019.024c.006.008.014.014.021.023a.26.26,0,0,0,.022.024.157.157,0,0,1,.022.023c.007.008.014.015.02.023h0l.02.02.018.021.02.023.02.019a.023.023,0,0,1,0,.007l.016.017.018.02a.015.015,0,0,0,.007.006.153.153,0,0,0,.017.021l.007.007.017.016.006.006.016.017.006.008a.138.138,0,0,1,.018.02l.007.006.017.02a.011.011,0,0,1,.006.006l.015.015.007.008.018.02h.007l.018.02.006.007a.094.094,0,0,1,.014.016l.007.006.017.02a.026.026,0,0,1,.007.008l.02.02.015.017.006.006.018.02a.019.019,0,0,1,.007.008c.006,0,.011.011.018.016a.027.027,0,0,0,.008.009l.011.013a.031.031,0,0,0,.01.01l.015.017.009.008.016.016a.031.031,0,0,0,.008.009l.012.013.011.014.014.013.008.01.017.016.008.008.013.013.012.012.012.013a.048.048,0,0,1,.009.01.071.071,0,0,1,.017.017l.009.008.012.012.012.013.012.013a.023.023,0,0,0,.009.009l.016.017.009.009.012.014.014.013a.041.041,0,0,0,.01.01l.013.014.013.014a.044.044,0,0,1,.012.011l.014.013v.006a.871.871,0,0,0,.622.262.86.86,0,0,0,.606-.247.869.869,0,0,0,.016-1.229h0c-.976-1-1.921-2.049-2.814-3.121a.865.865,0,0,0-.669-.315m5.965,6.111a.869.869,0,0,0-.574,1.521c.174.154.344.3.527.453l.028.023.007.007.021.016a.021.021,0,0,0,.008.008l.013.012.015.013s.007,0,.012.01l.013.009.011.01.017.014.008.007.02.016.006.006.018.015h.007l.021.018.022.02.047.039.024.02q.858.717,1.746,1.4c.018.015.034.026.053.04l.025.018.024.02.02.016h.006a.079.079,0,0,1,.021.016h.008c.007.007.014.011.021.017l.009.006a.033.033,0,0,0,.015.01.026.026,0,0,0,.01.009l.017.013a.029.029,0,0,0,.012.009l.015.013.014.009a.039.039,0,0,1,.009.009.148.148,0,0,1,.022.017h.007l.047.036.427.319a.87.87,0,1,0,1.032-1.4c-1.122-.829-2.224-1.721-3.277-2.638a.869.869,0,0,0-.574-.213m6.87,5.078a.869.869,0,0,0-.459,1.606q1.842,1.147,3.78,2.138a.869.869,0,0,0,.8-1.544c-1.24-.64-2.472-1.335-3.658-2.073a.863.863,0,0,0-.459-.13m7.6,3.9a.868.868,0,0,0-.334,1.67h.008l.016.006.014.007.02.008h.01l.024.008h.008c.007,0,.014.007.02.008h.007l.025.009h.007l.026.01h.006l.024.009a.1.1,0,0,1,.026.01h.007l.028.013.029.01.029.012.03.013.029.013.029.013.06.025.029.012.062.024.031.013.062.026q.912.364,1.835.7l.061.023.03.012.061.021a.14.14,0,0,0,.03.01l.029.01a.074.074,0,0,1,.029.01h.008l.026.008h.006l.023.009h.032a.016.016,0,0,0,.01,0l.024.009h.012l.018.006h.014l.018.006H211l.022.009h.014a.025.025,0,0,0,.014,0,.022.022,0,0,1,.019.008h.014a.028.028,0,0,0,.014,0l.014.007.023.006h.01l.029.009h.006l.018.006.033.012c.286.1.574.193.857.284a.819.819,0,0,0,.263.041.87.87,0,0,0,.267-1.7c-1.327-.428-2.655-.918-3.944-1.452a.883.883,0,0,0-.333-.065m8.126,2.622a.868.868,0,0,0-.2,1.715q2.1.493,4.266.82a.822.822,0,0,0,.132.01.87.87,0,0,0,.127-1.729c-1.377-.21-2.77-.475-4.13-.794a.784.784,0,0,0-.2-.024m8.446,1.271a.868.868,0,0,0-.058,1.736q1.481.1,2.982.124a.5.5,0,0,0,.057,0h1.038a.6.6,0,0,1,.069,0h.2a.862.862,0,0,0,.85-.872.873.873,0,0,0-.872-.865H228.6c-1.21,0-2.432-.042-3.633-.126a.421.421,0,0,0-.061,0m12.784-.651a.9.9,0,0,0-.15.013c-1.377.24-2.775.423-4.166.55a.869.869,0,0,0,.075,1.736q.038,0,.077,0,.459-.042.907-.091a.165.165,0,0,0,.062-.008.234.234,0,0,0,.042,0l.06-.006h.007l.056-.006h.038a.021.021,0,0,1,.013,0h.03a.064.064,0,0,0,.021,0,.033.033,0,0,0,.016,0h.052a.038.038,0,0,1,.016,0H234.8a.049.049,0,0,1,.02,0h.01a.112.112,0,0,1,.028,0h.229l.06-.008h.033l.067-.008q1.262-.158,2.51-.376a.868.868,0,0,0-.147-1.721m8.265-2.138a.928.928,0,0,0-.286.048c-1.316.459-2.669.867-4.022,1.218a.868.868,0,0,0,.216,1.71.837.837,0,0,0,.218-.027q.793-.2,1.576-.435l.1-.029.063-.02c.013,0,.021-.007.033-.008l.063-.02a.109.109,0,0,0,.031-.009l.061-.018.029-.008.03-.01.031-.008.029-.008.03-.009a.158.158,0,0,1,.029-.008l.031-.009.03-.01a.13.13,0,0,1,.03-.008l.06-.018.029-.012.03-.008.03-.008h.006a.159.159,0,0,1,.03-.009l.03-.01.03-.008a.127.127,0,0,1,.029-.009l.028-.009a.037.037,0,0,0,.029-.009h0a.143.143,0,0,0,.029-.008l.024-.007h.007l.027-.009.03-.008c.008,0,.016-.007.025-.008h.006a.11.11,0,0,0,.028-.008h.008l.024-.008.026-.012h.008a.1.1,0,0,0,.025-.008h.008l.023-.007h.006l.025-.009h.01a.09.09,0,0,0,.025-.008h.006l.021-.007h.01l.024-.008h.044l.02-.007h.012l.023-.008h.01l.018-.006h.015s.013,0,.016-.007h.014l.022-.008h.045l.016-.007h.013l.021-.006a.045.045,0,0,1,.017,0h.012l.02-.006.015-.006h.016a.021.021,0,0,1,.013,0l.021-.008h.013l.018-.006a.025.025,0,0,0,.015,0l.016-.007h.008l.03-.008h.006A.328.328,0,0,0,245.5,273h.008a.149.149,0,0,1,.031-.01l.057-.02c.158-.055.314-.107.469-.162a.869.869,0,0,0-.289-1.69m7.813-3.449a.875.875,0,0,0-.413.1c-1.229.667-2.5,1.289-3.775,1.853a.871.871,0,0,0,.352,1.666.894.894,0,0,0,.344-.072c.369-.164.735-.331,1.1-.5l.09-.041.091-.045.036-.016c.018-.009.035-.016.054-.028l.088-.041c.029-.015.059-.026.087-.042l.088-.041q1.138-.551,2.251-1.147a.871.871,0,0,0-.419-1.632m7.153-4.664a.856.856,0,0,0-.53.182c-1.1.853-2.256,1.674-3.426,2.434a.869.869,0,0,0,.476,1.6.849.849,0,0,0,.471-.14l.041-.025a.268.268,0,0,0,.033-.022c.017-.012.032-.02.048-.031l.028-.016.028-.016h.006l.014-.01h.009l.023-.017h.009l.018-.014.012-.007.013-.008.013-.009.016-.013.013-.006.017-.014.013-.008.012-.009.015-.009.015-.01.013-.008.012-.009.02-.013.009-.008c.009,0,.012-.009.022-.013l.008-.006.016-.01s.007,0,.008-.006l.021-.013a.011.011,0,0,0,.009-.007l.021-.014.008-.007a.067.067,0,0,0,.017-.01h.009l.02-.015.009-.006a.081.081,0,0,0,.022-.015l.008-.006.02-.01a.009.009,0,0,0,.008-.006.134.134,0,0,1,.021-.015h.007l.024-.014.024-.017.024-.015.024-.016c.008,0,.016-.012.025-.016h0l.023-.016.025-.017a.177.177,0,0,0,.024-.016l.024-.014.024-.015a.257.257,0,0,0,.025-.017l.024-.016a.169.169,0,0,1,.025-.016l.024-.02.025-.016.025-.02.024-.016a.2.2,0,0,1,.028-.016l.025-.017a.145.145,0,0,0,.025-.017l.053-.038.024-.02c.017-.012.034-.024.051-.037a.121.121,0,0,1,.025-.016.607.607,0,0,0,.053-.038.114.114,0,0,0,.026-.016l.055-.038.028-.02.081-.055c.016-.013.036-.025.055-.038l.026-.022c.024-.02.054-.038.079-.058l.082-.06.084-.059.081-.058c.485-.344.963-.711,1.437-1.075a.869.869,0,0,0-.532-1.556m6.316-5.753a.865.865,0,0,0-.635.274c-.953,1.02-1.959,2.013-2.993,2.955a.868.868,0,0,0-.056,1.227h0a.857.857,0,0,0,.64.283.868.868,0,0,0,.587-.229.109.109,0,0,0,.02-.017.137.137,0,0,0,.021-.02l.006-.006a.076.076,0,0,0,.02-.02h.009c0-.007.01-.01.016-.017s0,0,.006,0a.121.121,0,0,1,.019-.017l.006-.007.02-.016.008-.009.013-.013.013-.009.013-.014.012-.008.015-.016a.034.034,0,0,1,.011-.009.014.014,0,0,0,.009-.01s.01-.01.02-.014,0-.007.008-.008.012-.01.016-.017a.024.024,0,0,0,.009-.008l.013-.012.009-.008.019-.02v-.006a.17.17,0,0,0,.026-.021l.013-.013a.3.3,0,0,1,.025-.024.182.182,0,0,1,.025-.024.066.066,0,0,0,.017-.015l.027-.025s.021-.016.029-.024.031-.028.042-.041c.036-.031.067-.063.1-.1l.217-.207.071-.07.071-.068a.887.887,0,0,0,.071-.069l.028-.025s.028-.026.041-.041h0a.223.223,0,0,0,.024-.025.283.283,0,0,0,.024-.028.06.06,0,0,0,.013-.012l.006-.007c.009-.006.013-.012.022-.018v-.006a.23.23,0,0,1,.022-.021l.006-.006.013-.013.007-.006.018-.02a.019.019,0,0,0,.008-.008.063.063,0,0,0,.017-.017.008.008,0,0,0,.008-.008.056.056,0,0,0,.013-.01.049.049,0,0,0,.009-.012.044.044,0,0,0,.016-.014l.01-.009.015-.016.013-.011.009-.009.016-.015.011-.01s0-.006.009-.01a.07.07,0,0,0,.013-.015l.012-.01.008-.008a.121.121,0,0,0,.016-.017.034.034,0,0,0,.01-.01.015.015,0,0,0,.013-.01.025.025,0,0,1,.013-.012l.013-.013a.026.026,0,0,1,.009-.008.089.089,0,0,1,.016-.017s0-.006.008-.008.01-.013.016-.017l.007-.008a.074.074,0,0,0,.016-.016h.006c.006,0,.013-.013.018-.02s0,0,.007-.007l.02-.02a.065.065,0,0,0,.02-.016c.007-.007.015-.014.02-.019s0,0,.008-.007a.168.168,0,0,0,.02-.021h0a.11.11,0,0,0,.022-.021l.023-.021a.217.217,0,0,1,.023-.021.132.132,0,0,0,.023-.023l.024-.023.024-.024c.017-.016.032-.031.047-.047a.156.156,0,0,1,.023-.024c.366-.369.73-.743,1.084-1.125a.867.867,0,0,0-.635-1.459m5.312-6.69a.871.871,0,0,0-.724.384c-.775,1.159-1.606,2.3-2.48,3.393a.87.87,0,0,0,.141,1.222.851.851,0,0,0,.54.189.864.864,0,0,0,.679-.33c.436-.549.862-1.1,1.274-1.67a.194.194,0,0,0,.02-.026c.012-.02.026-.036.039-.053l.02-.027.039-.05a.235.235,0,0,1,.017-.025.121.121,0,0,1,.019-.024.093.093,0,0,1,.016-.023c.007-.008.014-.017.02-.023a.022.022,0,0,1,0-.007.166.166,0,0,1,.02-.024.121.121,0,0,1,.015-.02.015.015,0,0,1,0-.006c0-.008.012-.015.016-.023s0,0,0-.007l.017-.023.013-.02v-.008a.144.144,0,0,0,.016-.021.01.01,0,0,0,0-.009.122.122,0,0,0,.017-.02V253.5a.1.1,0,0,1,.013-.017.014.014,0,0,1,0-.008l.015-.021s0-.007.007-.009l.014-.021a.026.026,0,0,0,.007-.008.084.084,0,0,1,.01-.016s0-.006.008-.008a.122.122,0,0,1,.013-.02l.006-.012a.128.128,0,0,0,.015-.018l.006-.01.01-.015s.008-.008.008-.012l.013-.016a.047.047,0,0,1,.009-.012l.013-.018a.277.277,0,0,1,.017-.024l.013-.016a.027.027,0,0,1,.009-.013.012.012,0,0,1,.008-.012l.013-.018a.03.03,0,0,1,.009-.013.047.047,0,0,1,.008-.01.137.137,0,0,1,.013-.018.016.016,0,0,1,.008-.01.057.057,0,0,1,.009-.013l.013-.018.008-.013a.03.03,0,0,0,.007-.01.11.11,0,0,0,.015-.02.022.022,0,0,1,.006-.008.254.254,0,0,1,.017-.025v-.006a.1.1,0,0,0,.01-.016.247.247,0,0,1,.017-.024v-.008a.071.071,0,0,0,.016-.024v-.008a.086.086,0,0,0,.013-.016V252.9l.017-.023a.129.129,0,0,1,.02-.028l.012-.016a.153.153,0,0,1,.018-.026.161.161,0,0,1,.016-.026v-.007c0-.007.006-.009.01-.014s.015-.02.021-.03,0,0,0-.007l.019-.028.032-.046a.286.286,0,0,1,.021-.027c.013-.016.021-.031.033-.047a.138.138,0,0,0,.021-.03c.012-.016.021-.031.034-.047a.2.2,0,0,1,.021-.027h0c.01-.017.022-.031.031-.049a.213.213,0,0,0,.021-.031c.013-.017.02-.031.033-.049l.021-.031c.021-.027.038-.055.056-.081s.018-.026.029-.045a.866.866,0,0,0-.723-1.349m4.168-7.456a.87.87,0,0,0-.791.507c-.574,1.27-1.221,2.531-1.9,3.749a.873.873,0,0,0,.335,1.184.855.855,0,0,0,.421.115.871.871,0,0,0,.761-.445q.66-1.183,1.262-2.4c0-.01.012-.02.015-.029s.009-.018.014-.03.009-.018.014-.026h0a.3.3,0,0,1,.013-.028.1.1,0,0,1,.01-.022.014.014,0,0,0,0-.007c0-.008.008-.017.012-.025s0,0,0-.008a.213.213,0,0,0,.013-.023v-.009a.074.074,0,0,1,.008-.018v-.011a.059.059,0,0,0,.01-.021s0-.009.006-.01.007-.015.008-.021,0-.009.009-.013,0-.008,0-.015a.067.067,0,0,0,.008-.015c0-.007,0-.01.009-.016s0-.009.006-.015l.006-.008a.088.088,0,0,0,.01-.025v-.008s.01-.02.015-.029l.009-.017c.006-.013.01-.023.017-.035h0c.156-.324.306-.648.459-.975a.869.869,0,0,0-.431-1.147.86.86,0,0,0-.36-.079m2.9-8.03a.867.867,0,0,0-.837.641c-.367,1.345-.793,2.694-1.269,4.007a.87.87,0,0,0,.521,1.114h0a.855.855,0,0,0,.3.053.872.872,0,0,0,.818-.574.135.135,0,0,1,.01-.032c.012-.032.024-.063.033-.094s.017-.04.025-.061a.087.087,0,0,1,.01-.032c.006-.02.015-.04.023-.062s.009-.022.012-.03a.109.109,0,0,1,.009-.031.267.267,0,0,0,.013-.029.159.159,0,0,0,.01-.03s.006-.02.008-.03a.12.12,0,0,1,.009-.028v-.007a.086.086,0,0,0,.012-.029.037.037,0,0,1,.008-.023.022.022,0,0,1,0-.007.215.215,0,0,1,.01-.028.01.01,0,0,1,0-.008.119.119,0,0,1,.008-.025h0a.081.081,0,0,1,.008-.025V240a.115.115,0,0,1,.01-.025v-.008a.064.064,0,0,0,.007-.022.015.015,0,0,0,0-.008.087.087,0,0,1,.009-.025.014.014,0,0,1,0-.008.1.1,0,0,1,.01-.026.015.015,0,0,1,0-.008.041.041,0,0,1,.006-.021c.006-.008,0,0,0-.007a.132.132,0,0,1,.009-.025.017.017,0,0,1,0-.012.125.125,0,0,1,.008-.025.012.012,0,0,0,0-.008.019.019,0,0,1,.008-.018.025.025,0,0,1,0-.012.119.119,0,0,1,.006-.023v-.012a.081.081,0,0,0,.006-.021.03.03,0,0,0,0-.013.02.02,0,0,1,.009-.02.016.016,0,0,1,0-.01.105.105,0,0,1,.008-.023.079.079,0,0,1,0-.013.09.09,0,0,0,.006-.016v-.015l.006-.016v-.012a.17.17,0,0,1,.006-.023.035.035,0,0,0,0-.013s0-.011.007-.015a.14.14,0,0,1,0-.018v-.015a.035.035,0,0,0,0-.014.129.129,0,0,1,.008-.022v-.014a.043.043,0,0,0,0-.014.035.035,0,0,1,.008-.022.025.025,0,0,1,0-.012.034.034,0,0,1,0-.015.049.049,0,0,0,0-.015.023.023,0,0,1,.008-.021.036.036,0,0,1,0-.012.033.033,0,0,1,.006-.022c.006-.009,0-.008,0-.014a.032.032,0,0,1,.007-.015.061.061,0,0,1,0-.012.109.109,0,0,0,.009-.025.012.012,0,0,0,0-.008.183.183,0,0,0,.009-.03.008.008,0,0,0,0-.006.087.087,0,0,1,.007-.018.012.012,0,0,0,0-.007.15.15,0,0,0,.008-.029v-.008c0-.008.013-.035.017-.053a.02.02,0,0,1,0-.008.175.175,0,0,1,.009-.029.008.008,0,0,1,0-.007.5.5,0,0,1,.02-.055.124.124,0,0,1,.01-.031c.007-.022.013-.038.017-.057a.268.268,0,0,0,.013-.036l.007-.018a.11.11,0,0,1,.013-.036l.031-.094c.229-.718.442-1.44.641-2.17a.868.868,0,0,0-.613-1.062.845.845,0,0,0-.229-.031m1.566-8.395a.871.871,0,0,0-.864.779c-.144,1.389-.344,2.789-.6,4.159a.869.869,0,0,0,.688,1.014.791.791,0,0,0,.161.015.872.872,0,0,0,.854-.71q.141-.762.261-1.533c.007-.033.013-.067.017-.1a.316.316,0,0,1,.008-.067,1,1,0,0,1,.015-.1.314.314,0,0,1,.012-.063.236.236,0,0,1,0-.032.168.168,0,0,1,0-.031.236.236,0,0,1,0-.032.477.477,0,0,0,.009-.063v-.031a.08.08,0,0,1,0-.031.122.122,0,0,1,0-.031v-.036a.145.145,0,0,0,0-.029.079.079,0,0,0,0-.031v-.059a.22.22,0,0,1,0-.031.187.187,0,0,1,0-.029v-.031a.544.544,0,0,0,.009-.061.268.268,0,0,0,0-.03c0-.009,0-.018,0-.028a.272.272,0,0,0,0-.03.315.315,0,0,1,.009-.063.211.211,0,0,1,0-.031.153.153,0,0,1,0-.026v-.03a.481.481,0,0,0,.009-.061.123.123,0,0,0,0-.031.141.141,0,0,0,0-.031.132.132,0,0,0,0-.032.56.56,0,0,1,.008-.063v-.033c0-.01.007-.047.008-.067q.078-.607.14-1.219a.869.869,0,0,0-.774-.953.672.672,0,0,0-.091,0m.2-8.542h-.049a.869.869,0,0,0-.818.916v0c.054.981.081,1.98.081,2.968,0,.415,0,.826-.015,1.238a.868.868,0,0,0,.847.889h.022a.868.868,0,0,0,.869-.844v-.251c0-.236.008-.473.008-.71v-.855a.039.039,0,0,1,0-.015v-.459c-.012-.688-.038-1.377-.075-2.054a.871.871,0,0,0-.868-.819m-1.164-8.462a.812.812,0,0,0-.189.021.868.868,0,0,0-.662,1.032c.3,1.363.554,2.753.742,4.139a.871.871,0,0,0,.859.75.83.83,0,0,0,.122-.008.871.871,0,0,0,.741-.98.03.03,0,0,0,0-.015v-.028a.043.043,0,0,1,0-.018.034.034,0,0,0,0-.016.064.064,0,0,1,0-.015.025.025,0,0,0,0-.014.067.067,0,0,1,0-.023.11.11,0,0,0,0-.015v-.017a.055.055,0,0,1,0-.02.061.061,0,0,0,0-.016.018.018,0,0,1,0-.013.068.068,0,0,0,0-.023v.084a.03.03,0,0,0,0-.016v-.017a.093.093,0,0,1,0-.021.038.038,0,0,0,0-.013.058.058,0,0,1,0-.023.038.038,0,0,0,0-.013v-.017a.073.073,0,0,1,0-.013.084.084,0,0,0,0-.025.049.049,0,0,1,0-.01.1.1,0,0,0,0-.023v-.008a.117.117,0,0,0,0-.025v-.008a.109.109,0,0,1,0-.028.016.016,0,0,0,0-.01.154.154,0,0,1,0-.018v-.01c0-.008,0-.017,0-.025v-.01a.1.1,0,0,0,0-.028v-.006a.152.152,0,0,0,0-.025v-.007a.145.145,0,0,1,0-.029.011.011,0,0,0,0-.006.1.1,0,0,1,0-.028v-.029a.014.014,0,0,1,0-.008.21.21,0,0,0,0-.03v-.03a.113.113,0,0,1,0-.03.365.365,0,0,0-.009-.063v-.031a.17.17,0,0,1,0-.031.133.133,0,0,1-.006-.031.174.174,0,0,0-.008-.063.073.073,0,0,0-.006-.033.393.393,0,0,1-.01-.068c-.115-.672-.229-1.339-.361-2a.321.321,0,0,0-.013-.067c0-.022,0-.022-.008-.032a.457.457,0,0,0-.014-.063.06.06,0,0,0-.006-.031l-.007-.03a.073.073,0,0,1,0-.029v-.036a.158.158,0,0,0,0-.023v-.008a.034.034,0,0,0-.007-.025c-.007-.008,0-.008,0-.01a.075.075,0,0,0,0-.021.019.019,0,0,0,0-.01v-.023a.024.024,0,0,1,0-.012.048.048,0,0,1,0-.016.072.072,0,0,1,0-.022.028.028,0,0,0,0-.013.356.356,0,0,0-.01-.053.01.01,0,0,0,0-.008.132.132,0,0,0,0-.032.007.007,0,0,0,0-.007c-.034-.17-.071-.337-.115-.507a.867.867,0,0,0-.846-.679m-2.524-8.16a.825.825,0,0,0-.324.063.869.869,0,0,0-.484,1.13c.517,1.3.991,2.628,1.4,3.961a.867.867,0,0,0,.829.614.824.824,0,0,0,.256-.04.864.864,0,0,0,.575-1.078v0q-.36-1.165-.769-2.307h0l-.012-.036c-.007-.02-.015-.036-.022-.054h0l-.02-.056a10.611,10.611,0,0,0-.025-.071.018.018,0,0,0-.009-.018.1.1,0,0,0-.012-.033h0c0-.022-.013-.035-.018-.055a.236.236,0,0,1-.01-.033h0s-.013-.036-.021-.054v-.006a.242.242,0,0,1-.012-.032l-.02-.054a.2.2,0,0,1-.013-.033.453.453,0,0,0-.022-.054c-.013-.031-.023-.063-.036-.1-.134-.353-.269-.708-.413-1.061a.867.867,0,0,0-.8-.543m-3.808-7.644a.858.858,0,0,0-.446.124.87.87,0,0,0-.3,1.194c.724,1.2,1.4,2.435,2.025,3.685a.875.875,0,0,0,.78.482.85.85,0,0,0,.388-.093.869.869,0,0,0,.392-1.164v0q-.544-1.1-1.141-2.164c-.031-.059-.065-.115-.1-.178-.016-.03-.034-.059-.049-.088-.263-.459-.529-.918-.8-1.377a.865.865,0,0,0-.745-.419m-4.987-6.934a.868.868,0,0,0-.663,1.432c.9,1.065,1.775,2.18,2.592,3.312a.866.866,0,0,0,1.208.2l0,0a.872.872,0,0,0,.2-1.214c-.1-.127-.187-.258-.279-.385a.568.568,0,0,1-.042-.054l-.02-.027c-.018-.028-.038-.055-.059-.081s-.041-.054-.061-.081c0-.008-.012-.017-.016-.025a.641.641,0,0,1-.04-.053c-.008-.008-.013-.017-.021-.025l-.04-.053c0-.008-.013-.016-.017-.025h0l-.037-.05a.122.122,0,0,0-.02-.023l-.02-.025c0-.009-.013-.017-.016-.025h0a.1.1,0,0,1-.016-.023s-.013-.017-.018-.023a.167.167,0,0,0-.016-.021v-.007a.084.084,0,0,0-.017-.021v-.007c0-.007-.012-.015-.016-.023a.1.1,0,0,0-.015-.021c-.006-.008-.009-.015-.016-.023s0,0-.007-.007a.053.053,0,0,0-.016-.021v-.006l-.013-.02v-.006a.108.108,0,0,1-.017-.021.022.022,0,0,1-.006-.008.069.069,0,0,1-.015-.021l-.006-.006-.015-.02v-.006a.079.079,0,0,0-.017-.018v-.008s-.013-.015-.016-.021l-.006-.008-.012-.016s-.006-.007-.006-.01a.088.088,0,0,1-.015-.017l-.006-.008-.015-.019a.05.05,0,0,1-.008-.01l-.009-.015a.035.035,0,0,1-.008-.013.083.083,0,0,1-.013-.015l-.009-.01-.013-.017a.028.028,0,0,1-.008-.01l-.013-.015-.01-.015a.061.061,0,0,0-.01-.013.037.037,0,0,0-.009-.012l-.013-.018a.014.014,0,0,1-.009-.011l-.012-.013-.01-.017a.052.052,0,0,1-.009-.01l-.01-.015a.077.077,0,0,1-.013-.015.02.02,0,0,1-.009-.01.035.035,0,0,1-.008-.013.108.108,0,0,1-.015-.017c-.006-.007-.007-.006-.009-.011a.108.108,0,0,1-.015-.018.024.024,0,0,0-.009-.008.086.086,0,0,0-.008-.015s0-.006-.008-.008a.133.133,0,0,0-.015-.021l-.006-.008-.016-.02a.03.03,0,0,0-.009-.01.011.011,0,0,0-.008-.01c-.008,0,0-.008-.008-.013a.075.075,0,0,0-.015-.018.024.024,0,0,1-.006-.008.207.207,0,0,1-.016-.022l-.007-.006a.42.42,0,0,0-.036-.043l-.021-.028-.038-.045a.193.193,0,0,0-.023-.026.524.524,0,0,0-.038-.046l-.025-.03c-.021-.024-.041-.053-.063-.077-.331-.413-.664-.818-1.006-1.219a.863.863,0,0,0-.66-.3m-6.033-6.046a.871.871,0,0,0-.566,1.533c1.063.905,2.1,1.865,3.089,2.852a.855.855,0,0,0,.615.256.868.868,0,0,0,.614-1.482l-.016-.013v-.006l-.013-.012-.009-.01-.016-.015a.041.041,0,0,1-.008-.01l-.013-.01a.045.045,0,0,0-.015-.015l-.008-.008a.081.081,0,0,0-.02-.017s0-.007-.006-.008a.1.1,0,0,1-.015-.015l-.006-.007-.02-.018-.006-.006-.019-.018-.006-.007-.016-.017h-.007c0-.006-.013-.012-.016-.019l-.006-.006a.165.165,0,0,1-.021-.021c-.017-.015-.031-.03-.046-.044h0a.222.222,0,0,0-.023-.023.538.538,0,0,1-.046-.046l-.022-.023q-.908-.889-1.858-1.737l-.026-.023-.049-.045-.025-.018-.021-.021-.02-.017h-.007a.133.133,0,0,0-.018-.018l-.006-.007-.021-.016a.008.008,0,0,0-.008-.008l-.014-.013a.024.024,0,0,1-.01-.008.075.075,0,0,1-.014-.013l-.013-.01-.017-.014-.008-.009-.01-.008c-.009-.007-.013-.013-.021-.018l-.006-.007a.449.449,0,0,1,.373-.22l-.027-.024-.529-.459a.862.862,0,0,0-.559-.206m-6.925-5a.868.868,0,0,0-.453,1.606c1.194.723,2.372,1.505,3.5,2.322a.869.869,0,0,0,1.02-1.406l-.317-.229-.164-.115a.237.237,0,0,0-.03-.021c-.015-.012-.03-.023-.046-.033l-.029-.021-.048-.033-.028-.021-.048-.031-.026-.018h-.006a.189.189,0,0,1-.026-.018.05.05,0,0,1-.013-.011h-.008l-.023-.016-.008-.007a.2.2,0,0,1-.027-.017l-.013-.01H259.1c-.008,0-.015-.01-.023-.014l-.008-.007-.022-.015-.009-.006-.013-.01-.01-.007c-.007,0-.013-.01-.02-.015l-.01-.007-.018-.013-.013-.008-.012-.008-.013-.012a.035.035,0,0,1-.016-.01l-.01-.006a.1.1,0,0,0-.02-.013.043.043,0,0,0-.013-.008.039.039,0,0,0-.013-.008l-.012-.01c-.006,0-.013-.007-.017-.012l-.013-.008-.017-.013a.042.042,0,0,1-.013-.009l-.013-.008a.094.094,0,0,1-.017-.014l-.013-.006-.012-.01a.056.056,0,0,1-.016-.01l-.012-.009a.036.036,0,0,1-.013-.008.1.1,0,0,1-.016-.012.038.038,0,0,1-.014-.009l-.013-.008-.014-.008a.077.077,0,0,1-.015-.013s-.009,0-.012-.006-.014-.008-.02-.012-.007,0-.012-.009l-.015-.008-.014-.01-.013-.008-.013-.008-.018-.012-.011-.008-.016-.009a.042.042,0,0,0-.013-.01l-.012-.008a.043.043,0,0,0-.013-.008l-.02-.012a.029.029,0,0,1-.009-.008l-.016-.008a.052.052,0,0,0-.017-.01.036.036,0,0,0-.013-.008l-.009-.008-.02-.013a.023.023,0,0,1-.013-.008l-.015-.008-.016-.011-.012-.008a.07.07,0,0,0-.016-.01.09.09,0,0,1-.015-.01l-.013-.008-.013-.008a.063.063,0,0,1-.016-.01l-.013-.008a.042.042,0,0,0-.017-.01.036.036,0,0,0-.012-.008l-.013-.009-.013-.01a.044.044,0,0,1-.016-.01l-.013-.007a.077.077,0,0,0-.017-.012l-.013-.008a.038.038,0,0,0-.012-.008.057.057,0,0,1-.016-.01l-.015-.01-.01-.007c-.009,0-.012-.008-.021-.013l-.008-.006-.015-.01-.013-.009c-.007,0-.013-.008-.02-.01l-.008-.006a.134.134,0,0,0-.024-.015.008.008,0,0,1-.008-.007c0-.007-.032-.021-.047-.029h0l-.026-.017h-.008l-.013-.01H257.8l-.025-.017-.025-.014-.008-.007a.276.276,0,0,1-.046-.03h-.007l-.027-.017-.048-.029-.026-.016h-.007l-.048-.031a.169.169,0,0,1-.033-.022c-.013-.009-.059-.036-.086-.054-.344-.218-.68-.43-1.032-.639a.857.857,0,0,0-.444-.124M248.3,172.7a.87.87,0,0,0-.323,1.676c1.293.52,2.584,1.1,3.832,1.72a.855.855,0,0,0,.388.093.869.869,0,0,0,.391-1.645c-.136-.069-.274-.137-.411-.2-.031-.017-.061-.03-.091-.046s-.036-.016-.054-.025l-.03-.015h-.008l-.028-.013h-.007l-.016-.006-.028-.013h-.009l-.025-.013h-.008l-.016-.007h-.009c-.009,0-.016-.008-.022-.012s-.007,0-.012,0l-.025-.013h-.008l-.015-.006a.013.013,0,0,0-.009,0l-.026-.013h-.007l-.026-.013h-.009l-.015-.006a.016.016,0,0,0-.01,0l-.021-.012h-.013l-.021-.01-.013-.006-.014-.007-.013-.006a.061.061,0,0,1-.021-.01h-.013l-.016-.009-.016-.006-.013-.008h-.013a.085.085,0,0,0-.021-.01l-.013-.007-.015-.006a.062.062,0,0,0-.019-.008l-.013-.007-.013-.006-.019-.01h-.014l-.013-.006-.021-.011-.013-.006-.015-.006a.078.078,0,0,0-.02-.009l-.013-.006-.013-.006-.022-.009a.018.018,0,0,1-.013-.006l-.013-.006-.02-.012-.012-.006h-.013l-.02-.012-.013-.006-.013-.007c-.008,0-.014-.006-.021-.008l-.012-.006-.013-.007-.022-.008-.012-.006-.016-.008-.015-.007-.015-.006-.013-.006-.02-.01h-.013a.072.072,0,0,0-.017-.009l-.017-.007a.028.028,0,0,0-.013-.008h-.012a.084.084,0,0,1-.022-.012l-.013-.006-.016-.006-.017-.008-.014-.007h-.01l-.023-.01-.01-.006-.016-.007-.016-.006a.043.043,0,0,0-.016-.008l-.012-.007-.02-.008-.014-.007-.014-.006a.066.066,0,0,1-.017-.008l-.016-.006a.042.042,0,0,0-.013-.007c-.007,0-.013-.007-.021-.008l-.013-.006-.012-.006a.03.03,0,0,1-.017-.008l-.016-.006h-.012l-.021-.01-.013-.007-.016-.007-.015-.006-.016-.008h-.013a.035.035,0,0,1-.021-.01h-.013l-.016-.008-.013-.006-.02-.008h-.01a.07.07,0,0,1-.023-.01.016.016,0,0,1-.01,0,.072.072,0,0,1-.02-.008h-.01c-.009,0-.013-.007-.021-.008h-.012a.068.068,0,0,0-.023-.01H250.2a.072.072,0,0,0-.02-.009.01.01,0,0,0-.008,0l-.021-.01h-.013l-.021-.01h-.008l-.021-.008h-.008l-.025-.012h-.008l-.023-.01h-.008L250,173.48h-.006l-.025-.01h-.009a.113.113,0,0,1-.024-.01h-.007l-.023-.012H249.9l-.027-.013-.028-.011h-.006l-.025-.013-.028-.013-.028-.013-.025-.013-.029-.012-.026-.013-.029-.013-.03-.013q-.468-.2-.943-.39a.866.866,0,0,0-.323-.063m-8.155-2.532a.87.87,0,0,0-.189,1.721c1.363.3,2.729.667,4.061,1.082a.9.9,0,0,0,.256.038.87.87,0,0,0,.259-1.7.872.872,0,0,1-.1-.03l-.031-.01-.063-.02a.069.069,0,0,1-.029-.01l-.026-.008-.029-.008a.118.118,0,0,1-.03-.008c-.012,0-.02-.007-.028-.008h0l-.03-.009h-.008a.1.1,0,0,1-.024-.008l-.027-.008h-.006c-.009,0-.017-.007-.028-.008h-.006l-.026-.006a.234.234,0,0,0-.027-.008h-.008l-.028-.009-.026-.006-.028-.008h-.008l-.026-.007a.121.121,0,0,0-.025-.008h-.008l-.026-.008h-.008l-.023-.007h-.006l-.025-.006h-.009l-.026-.006h-.006a.082.082,0,0,1-.025-.008l-.029-.008h-.007l-.028-.008h-.006l-.023-.006h-.009a.1.1,0,0,1-.025-.009h-.009l-.024-.006h-.007a.119.119,0,0,1-.025-.008h-.006l-.028-.007h-.007l-.024-.008-.03-.008h-.006a.089.089,0,0,1-.028-.009l-.03-.008a.146.146,0,0,0-.03-.008h-.006l-.03-.008-.029-.009a.109.109,0,0,1-.03-.008l-.061-.017c-.013,0-.021-.007-.031-.008l-.064-.02-.03-.008-.065-.02q-1.277-.351-2.574-.641a.853.853,0,0,0-.188-.021m-8.461-1.178a.868.868,0,0,0-.051,1.736c1.4.081,2.807.219,4.185.413a1.175,1.175,0,0,0,.123.008.87.87,0,0,0,.115-1.731l-.2-.028-.063-.008h-.093a.1.1,0,0,1-.028,0h-.369a.056.056,0,0,1-.019,0h-.048a.029.029,0,0,1-.015,0h-.037a.024.024,0,0,1-.013,0,.045.045,0,0,1-.017,0,.063.063,0,0,1-.021,0h-.015a.028.028,0,0,1-.014,0h-.039a.021.021,0,0,1-.013,0h-.169a.065.065,0,0,0-.021,0,.038.038,0,0,0-.017,0h-.052a.025.025,0,0,0-.013,0h-.117a.029.029,0,0,1-.015,0h-.1a.04.04,0,0,0-.016,0,.018.018,0,0,0-.012,0h-.023a.021.021,0,0,0-.013,0h-.033a.057.057,0,0,1-.02,0h-.048a.058.058,0,0,0-.02,0h-.278l-.063-.007h-.031l-.066-.007q-1.178-.115-2.377-.19Z" transform="translate(-142.662 -137.395)" fill="#787878"/>
  </g>
</svg>
