<svg xmlns="http://www.w3.org/2000/svg" xmlns:xlink="http://www.w3.org/1999/xlink" width="203.639" height="186.744" viewBox="0 0 203.639 186.744">
  <defs>
    <clipPath id="clip-path">
      <path id="Path_31336" data-name="Path 31336" d="M0,0,2.408,185.8H203.639V0Z" transform="translate(0 0.003)" fill="none"/>
    </clipPath>
    <clipPath id="clip-path-2">
      <rect id="Rectangle_1941" data-name="Rectangle 1941" width="203.639" height="186.744" fill="none"/>
    </clipPath>
  </defs>
  <g id="Group_5185" data-name="Group 5185" transform="translate(0 0.003)">
    <g id="Group_5182" data-name="Group 5182" transform="translate(0 -0.003)">
      <g id="Group_5181" data-name="Group 5181" clip-path="url(#clip-path)">
        <path id="Path_31257" data-name="Path 31257" d="M676.863,256.1c-.983-.245-2.074-1.163-3.216-1.348.435-2.773-2.182-4.418-.053-5.973,1.6-1.17,2.789-4.192,3.724-4.057,1.675.243,1.922-.9,5.174.467,2.148.9,2.022.55,1.629,4.409-.215,2.1-.382,5.256-1.484,7.739-1.414-.677-4.237-.968-5.774-1.237" transform="translate(-506.475 -184.072)" fill="#edb996"/>
        <path id="Path_31258" data-name="Path 31258" d="M544.123,353.2,568.7,328.179l5.249-39.092s.018-.125.051-.351c-1.275-.112-9.887-1.545-9.887-1.545L553.777,324.56,528.158,341.2s9.291,13.106,15.965,12" transform="translate(-397.621 -216.21)" fill="#001a45"/>
        <rect id="Rectangle_1935" data-name="Rectangle 1935" width="3.214" height="10.437" transform="matrix(0.29, -0.957, 0.957, 0.29, 166.018, 72.036)" fill="#e6e6e6"/>
        <path id="Path_31259" data-name="Path 31259" d="M448.745,511l-13,3.273c7.866,8.978,10.438,23.494,13.767,35.08,1.816,6.578,3.081,13.027,4.4,19.721,1.167,5.335,4.59,5.7,4.59,5.7l15.962,2.782c1.169-1.174,4.115-11.756,1.593-17.249,0,0-2.884-3.01-.868-19.229.248-1.994-.971-2.457-.847-4.481C464.8,509.913,464.279,513.319,448.745,511" transform="translate(-328.051 -384.706)" fill="#e3e3e3"/>
        <path id="Path_31260" data-name="Path 31260" d="M442.369,512.688l17.482,9.493-.175-4.822S470.6,544.763,470.7,544.6s-7.44-26.474-7.44-26.474l.224-1.631,3.045.562.192-7.712-1.976-1.209-3.636,5.771s-4.1,2.284-4.313,2.313-14.424-3.532-14.424-3.532" transform="translate(-333.035 -382.547)" fill="#c9c9c9"/>
        <path id="Path_31261" data-name="Path 31261" d="M446.352,466.522l-5.56,1.6s-2.788,8.77-3.421,10.565,20.9,3.49,20.9,3.49S458.2,481,460.6,478.062c0,0-2.472-3.165-2.342-3.7.781-3.268-11.909-7.836-11.909-7.836" transform="translate(-329.262 -351.218)" fill="#dda885"/>
        <path id="Path_31262" data-name="Path 31262" d="M425.134,543.173c-2.3-12.756-10.136-20.636-25.809-27.83l-8.593,9.126s15.291,41.772,15.712,48.9c.651,11.032-2.336,13.287-2.336,13.287,2.626,8.295,15.465,17.461,21.06,15.879.262-3.826,4.595-33.722-.034-59.361" transform="translate(-294.161 -387.973)" fill="#001a45"/>
        <path id="Path_31263" data-name="Path 31263" d="M458.328,563.46c-.446,2.083-.511,4.189-2.074,5.9,2.646-.885,6.587-.13,7.262,2.175.443,1.323-2.954,3.424-2.9,3.669,5.959,8.152,11.667,16.976,15.842,26.414a149.581,149.581,0,0,0-2-22.484,30.257,30.257,0,0,0-7.911-16.023,11.8,11.8,0,0,1-8.223.344" transform="translate(-343.488 -423.938)" fill="#00102e"/>
        <path id="Path_31264" data-name="Path 31264" d="M422.238,514.949l-1.013,2.35c9.463,6.682,6.622,13.323,6.622,13.323l9.095,1.418-4.887,4.854s13.878,10.668,17.937,26.392c0,0-.814-14.233-1.947-20.506-2.3-12.756-10.135-20.636-25.808-27.83" transform="translate(-317.117 -387.676)" fill="#00245e"/>
        <path id="Path_31265" data-name="Path 31265" d="M529.565,508.465l-1.407,3.024c8.7,14.59,15.273,37.886,15.608,55.927,7.648-20.031-1.368-55.821-1.368-55.821Z" transform="translate(-397.621 -382.795)" fill="#001a45"/>
        <path id="Path_31266" data-name="Path 31266" d="M564.566,563.779c.237-2.007-1.455-7.594-1.455-7.594s-1.1-1.167-3.295-3.079c2.214-1.518.954-2.6,2.837-4.543-1.586.4-4.529-2.739-5.873-3.525-2.435,1.5-.584,3.473-3.087,5.016,5.691,10.793,9.888,16.66,8.438,32.128,1.439-3.3,1.505-12.516,2.435-18.4" transform="translate(-416.846 -410.328)" fill="#00102e"/>
        <path id="Path_31267" data-name="Path 31267" d="M543.377,551.075c1.237-9.391-.062-15.291,2.651-24.253-2.487.6-5.47-1.51-7.439-3.142,2.465-1.489,2.355-2.29,4.377-4.34-5.668-.909-11.359-5.9-13.4-10.875l-1.407,3.024c8.023,13.454,11.754,27.832,14.754,43.872-.272-1.453.408-2.91.464-4.286" transform="translate(-397.621 -382.795)" fill="#00245e"/>
        <path id="Path_31268" data-name="Path 31268" d="M433.666,383.095s1.243-6.409,7.428-7.928,8.071-.618,9.85,3.583,2.179,7.516,4.7,6.777a3.225,3.225,0,0,1,3.96,3.841,12.061,12.061,0,0,0-.577,2.213c0,2.207,2.181,1.8,2.965,5.506.458,2.163.228,6.241-8.983,8.23-6.859,1.48-10.268-.919-10.817-2.07a17.759,17.759,0,0,1-1.237-3.46c-.407-1.322-7.3-16.691-7.3-16.691" transform="translate(-326.483 -281.922)" fill="#edb996"/>
        <path id="Path_31269" data-name="Path 31269" d="M403.91,364.813s6.983,6.441,6.488,9.649-1.218,8.051-1.218,8.051S409,385.028,401.614,379c-7.59-6.189-7.8-5.353-7.681-7.831a7.059,7.059,0,0,1,1.079-3.737s-3.368-2.22-2.853-4.861,6.5-8.759,13.263-11.882,13.642-3.662,15.124.06c1.22,3.063-2.864,11.808-16.637,14.059" transform="translate(-295.195 -262.105)"/>
        <path id="Path_31270" data-name="Path 31270" d="M428.923,349.247c1.484,3.35-10.08,3.341-16.882,8.227-2.891,2.076-4.847,4.833-4.9,7.684s4.1,1.435,4.1,1.435a21.786,21.786,0,0,0-3.843,2c-.9.779,1.343,5.19,2.651,7.03,1.136,1.6,5.143,7.306,10.55,7.059.215-1.429.737-4.906,1.121-7.4.176-1.141,2.867-2.1,1.857-2.761-1.93-2.76-8.346-6.888-8.346-6.888,13.772-2.25,17.856-11,16.637-14.059a4.018,4.018,0,0,0-2.941-2.329" transform="translate(-306.513 -262.928)"/>
        <path id="Path_31271" data-name="Path 31271" d="M439.327,442.871a4.895,4.895,0,1,1-6.74-1.576,4.895,4.895,0,0,1,6.74,1.576" transform="translate(-323.929 -331.671)" fill="#edb996"/>
        <path id="Path_31272" data-name="Path 31272" d="M173.013,460.1l6.241-6.256,27.491,21.6,20.671,2.1c.028-.109,6.145,19.612,6.145,19.612l-37.014-11.677Z" transform="translate(-130.252 -341.675)" fill="#001a45"/>
        <path id="Path_31273" data-name="Path 31273" d="M422.026,622.241c-.019-.2-2.333-11.2-2.333-11.2l1.2-6.437-2.9,6.047Z" transform="translate(-314.684 -455.172)" fill="#00102e"/>
        <path id="Path_31274" data-name="Path 31274" d="M565.646,620.423l-.507-15.15s4.937,11.263,5.848,15.242,2.745,9.938,3.241,12.357.253,7.575-.634,9.459-4.093,1.123-4.093,1.123l-3.372-16.544s-.6-6.341-.484-6.486" transform="translate(-425.462 -455.676)" fill="#e3e3e3"/>
        <path id="Path_31275" data-name="Path 31275" d="M555.588,577.863s7.651,22.469,8.023,23.567,2.993,9.048,2.993,9.048-3.536-14.062-4.433-15.776-6.583-16.838-6.583-16.838" transform="translate(-418.272 -435.04)" fill="#c9c9c9"/>
        <path id="Path_31276" data-name="Path 31276" d="M501.278,525.216l4.836.535s8.32,43.422,25.8,46.426c3.926-.773,5.41-1.981,5.41-1.981l-1.773-4.631s-10.166-.367-15.826-9.428C511.827,543.493,507.363,525,507.363,525l1.763-3.606-4.4.352Z" transform="translate(-377.385 -392.53)" fill="#0963a5"/>
        <path id="Path_31277" data-name="Path 31277" d="M434.563,505.582l20.639,3.681,1.693-4.109,2.088,1.03.041,7.539-3.746-4.011-4.594,6.458-16.9-7.808Z" transform="translate(-326.574 -380.302)" fill="#e3e3e3"/>
        <path id="Path_31278" data-name="Path 31278" d="M479.321,511.489l-13.5-.776c1.379,2.421,1.99,2.5,3.145,4.957L474.8,518.4l4.594-6.458,3.745,4.011.048-6.171c-.048-.351-1.738-1.667-1.738-1.667Z" transform="translate(-350.694 -382.528)" fill="#fff"/>
        <path id="Path_31279" data-name="Path 31279" d="M149.175,430.882c-.616.744-1.858,1.3-2.488,2.21-1.174-.724-4.991-4.48-6.927-6.089-2.211-1.839.318-6.553,5.48-7.93,2.7-.72.5,3.882,2.732,3,1.875-.739,3.765,3.94,4.209,5.4a17,17,0,0,0-3.007,3.407" transform="translate(-104.613 -315.438)" fill="#edb996"/>
        <path id="Path_31280" data-name="Path 31280" d="M173.491,448.206l-6.351,6.757,2.356,2.186,6.351-6.757Z" transform="translate(-125.83 -337.429)" fill="#e6e6e6"/>
        <path id="Path_31281" data-name="Path 31281" d="M70.042,379.518a1.075,1.075,0,0,1-1.52,0l-1.338-1.382a1.075,1.075,0,0,1,0-1.518h0a1.074,1.074,0,0,1,1.52,0L70.045,378a1.076,1.076,0,0,1,0,1.519Z" transform="translate(-50.343 -283.295)" fill="#818181"/>
        <path id="Path_31282" data-name="Path 31282" d="M28.926,338.276h0a8.388,8.388,0,1,1,2.461-5.92,8.351,8.351,0,0,1-2.461,5.92" transform="translate(-10.981 -243.876)" fill="#b4b4b5"/>
        <path id="Path_31283" data-name="Path 31283" d="M25.113,334.469a6.239,6.239,0,1,0,4.429-1.834,6.216,6.216,0,0,0-4.429,1.834" transform="translate(-17.526 -250.422)" fill="#fff"/>
        <path id="Path_31284" data-name="Path 31284" d="M83.957,393.464l0,0a2.15,2.15,0,0,1-3.04-.006l-6.554-6.585a2.15,2.15,0,0,1,0-3.036.007.007,0,0,0,0,0,2.149,2.149,0,0,1,3.04.007l6.555,6.585a2.151,2.151,0,0,1,0,3.036" transform="translate(-55.511 -288.497)" fill="#818181"/>
        <path id="Path_31285" data-name="Path 31285" d="M347.746,154.306a1.724,1.724,0,0,1,1.723-1.723h23.042a1.725,1.725,0,0,1,1.722,1.723V169.38a1.724,1.724,0,0,1-1.722,1.723H349.469a1.723,1.723,0,0,1-1.723-1.723Z" transform="translate(-261.799 -114.871)" fill="#d1d3d4"/>
        <path id="Path_31286" data-name="Path 31286" d="M357.206,190.289l-8.995,8.019a1.723,1.723,0,0,0,1.608,1.114h23.042a1.716,1.716,0,0,0,1.6-1.114l-9.093-8.109" transform="translate(-262.149 -143.19)" fill="#f1f2f2"/>
        <path id="Path_31287" data-name="Path 31287" d="M348.21,153.806l13.129,12.834,13.127-12.834a1.731,1.731,0,0,0-1.605-1.222H349.818a1.738,1.738,0,0,0-1.608,1.222" transform="translate(-262.148 -114.871)" fill="#d1d3d4"/>
        <path id="Path_31288" data-name="Path 31288" d="M348.21,153.7,361.339,165.4,374.466,153.7a1.717,1.717,0,0,0-1.605-1.115H349.818a1.724,1.724,0,0,0-1.608,1.115" transform="translate(-262.148 -114.871)" fill="#f1f2f2"/>
        <path id="Path_31289" data-name="Path 31289" d="M133.409,271.837h-1.454a10.409,10.409,0,0,0-.423-1.492l1.217-.7a.615.615,0,0,0,.224-.836l-1.22-2.112a.612.612,0,0,0-.833-.223l-1.265.73a9.917,9.917,0,0,0-1.107-1.078l.7-1.219a.612.612,0,0,0-.223-.835l-2.113-1.22a.612.612,0,0,0-.832.224l-.729,1.263a9.849,9.849,0,0,0-1.5-.38V262.55a.61.61,0,0,0-.61-.611H120.8a.612.612,0,0,0-.613.611v1.457a10.094,10.094,0,0,0-1.489.421l-.7-1.217a.615.615,0,0,0-.838-.225l-2.112,1.222a.61.61,0,0,0-.222.832l.73,1.265a9.843,9.843,0,0,0-1.078,1.106l-1.218-.7a.612.612,0,0,0-.834.225l-1.222,2.112a.609.609,0,0,0,.224.833l1.263.729a9.869,9.869,0,0,0-.379,1.5h-1.407a.613.613,0,0,0-.612.612v2.438a.609.609,0,0,0,.612.609h1.457a9.8,9.8,0,0,0,.419,1.492l-1.218.7a.612.612,0,0,0-.223.833l1.219,2.111a.613.613,0,0,0,.835.225l1.265-.731a9.82,9.82,0,0,0,1.107,1.08l-.7,1.219a.608.608,0,0,0,.222.833l2.115,1.221a.609.609,0,0,0,.831-.223l.731-1.263a9.776,9.776,0,0,0,1.5.377v1.411a.607.607,0,0,0,.608.609l2.441,0a.611.611,0,0,0,.61-.61V283.6a10.442,10.442,0,0,0,1.489-.42l.7,1.215a.6.6,0,0,0,.831.224l2.115-1.221a.612.612,0,0,0,.221-.834l-.73-1.263a9.873,9.873,0,0,0,1.081-1.107l1.22.7a.61.61,0,0,0,.833-.223l1.219-2.113a.61.61,0,0,0-.222-.832l-1.263-.731a9.978,9.978,0,0,0,.379-1.5h1.408a.611.611,0,0,0,.609-.612v-2.44a.608.608,0,0,0-.609-.608m-11.25,6.832a4.867,4.867,0,1,1,4.867-4.867,4.868,4.868,0,0,1-4.867,4.867" transform="translate(-83.037 -197.199)" fill="#b4b4b5"/>
        <path id="Path_31290" data-name="Path 31290" d="M134.814,278.757a7.706,7.706,0,1,0,7.708,7.707,7.705,7.705,0,0,0-7.708-7.707m0,14.034a6.329,6.329,0,1,1,6.328-6.328,6.33,6.33,0,0,1-6.328,6.328" transform="translate(-95.693 -209.86)" fill="#989897"/>
        <path id="Path_31291" data-name="Path 31291" d="M157.641,278.757c-.072,0-.141,0-.211,0v1.379c.07,0,.139-.007.213-.007a6.329,6.329,0,0,1,0,12.658c-.073,0-.142,0-.213-.006v1.379c.07,0,.139,0,.211,0a7.706,7.706,0,1,0,0-15.412" transform="translate(-118.52 -209.86)" fill="#989897"/>
        <path id="Path_31292" data-name="Path 31292" d="M505.622,120.169a12.737,12.737,0,1,0,12.737,12.737,12.753,12.753,0,0,0-12.737-12.737" transform="translate(-371.064 -90.468)" fill="#27aae1"/>
        <path id="Path_31293" data-name="Path 31293" d="M587.1,185.715c-.168,0-.386.083-.389.14s-.235.161-.312.192a1,1,0,0,0-.257.345c-.032.078-.221.055-.291.086s-.214.147-.214.217-.04.062-.087-.018l-.091.1-.109.121a.993.993,0,0,1-.341.464c-.07.019-.083.364-.083.5a.64.64,0,0,0,.12.38l.015.11.023.219a.4.4,0,0,0,.128.35,1.81,1.81,0,0,0,.473-.086.817.817,0,0,0,.171-.07,12.687,12.687,0,0,0,1.312-3.042.324.324,0,0,0-.067-.006" transform="translate(-440.362 -139.814)" fill="#fff"/>
        <path id="Path_31294" data-name="Path 31294" d="M497.047,147.642c-.018.034.209.268.3.348a2.247,2.247,0,0,1,.313.587.955.955,0,0,1,0,.38c-.011.048.042.154.052.2a3.1,3.1,0,0,0-.045.569c.032.152-.177.621-.172.855s.11.538.153.515.057.212-.015.24-.154.215-.114.224,0,.193.01.267.072.559.085.679a3.654,3.654,0,0,0,.223.516c.036.1.072.289.087.318a.359.359,0,0,0,.033.06,1.141,1.141,0,0,1,.182.083,1.128,1.128,0,0,0,.4-.007c.089-.018.007-.1-.033-.144s-.076-.26-.122-.281a.489.489,0,0,1-.025-.356c.041-.061.2-.158.222-.209s.021-.29-.022-.323.012-.323-.02-.467.25-.275.266-.388.322-.237.392-.294a.725.725,0,0,0,.1-.455c-.034-.069.112-.126.178-.126s.137-.047.164-.047.1-.145.144-.178.129-.378.2-.436a.593.593,0,0,0,.139-.326,1,1,0,0,1,.154-.3,1.653,1.653,0,0,1,.375-.206,2.27,2.27,0,0,0,.148-.646c.02-.165.106-.386.112-.44s.1-.1.114-.118.086-.227.129-.275a1.383,1.383,0,0,0,.206-.294,1.782,1.782,0,0,1,.054-.256v-.291c-.05-.139-.2-.312-.242-.273s-.216-.122-.307-.156a1.707,1.707,0,0,0-.371-.062c-.058,0-.255-.161-.343-.189s-.313-.071-.355-.1-.1-.361-.277-.471a1.941,1.941,0,0,1-.535-.459c-.035-.093-.382-.291-.49-.349a.431.431,0,0,0-.29-.052c-.022.02-.155-.181-.224-.239s-.278-.1-.287-.053-.148.024-.181-.02-.139.018-.19.034-.223.281-.3.345-.176-.059-.227-.082a.576.576,0,0,0-.307.078c-.054.039-.181-.28-.151-.427s-.131-.438-.256-.445-.162-.314-.137-.427-.223-.184-.286-.191-.218.151-.243.227-.591-.1-.523-.442a1.539,1.539,0,0,1,.4-.729,1.01,1.01,0,0,1,.509-.016.133.133,0,0,0,.167-.022,1.066,1.066,0,0,1,.4.039c.087.036.215.377.3.419s.125-.22.14-.284a.653.653,0,0,0-.066-.272.938.938,0,0,1,.285-.53.647.647,0,0,0,.272-.341c-.012-.04.11-.072.143-.09s0-.351.05-.424a1.619,1.619,0,0,1,.4-.26.313.313,0,0,0,.114-.283c-.03-.037.213-.243.338-.284s.233.073.2.09c.025-.013.2-.1.273-.152s0-.214-.055-.26-.022-.226.044-.243.126-.173.108-.207.277.027.389-.056.032.2-.05.314a.129.129,0,0,0,.112.2c.053-.022.109.06.12.092s.124-.033.2,0,.117-.1.125-.163-.178-.191-.207-.264a4.69,4.69,0,0,1-.044-.594c0-.088-.123-.232-.161-.206s-.116-.23-.178-.285a.32.32,0,0,1-.073-.218c0-.041-.209-.261-.261-.365s-.122-.081-.126-.034-.151.053-.212.047-.111-.239-.111-.327-.272-.1-.318-.174-.222-.037-.251-.087a.282.282,0,0,0-.216-.076c-.032.018-.017.652-.047.823s-.175.321-.229.317-.021.122.016.111-.1.186-.121.317-.15-.006-.171-.124-.15-.277-.174-.237-.113-.048-.152-.023-.282-.141-.38-.2-.153-.354-.21-.38-.009-.063-.011-.109.19-.221.248-.291a3.528,3.528,0,0,1,.352-.4.365.365,0,0,0,.134-.246,2.231,2.231,0,0,1,.459-.18c.1-.034.187-.315.2-.4a.335.335,0,0,0-.11-.254c-.047-.02.14-.027.2,0s.255-.057.33-.017.228.131.339.2l-.024.206-.045.35c-.293.122-.377.331-.274.327a2.413,2.413,0,0,1,.7.3c.131.094.174-.137.213-.215a.568.568,0,0,0-.005-.345c-.031-.045.153-.029.205.021s.112-.052.152-.069.059-.21.082-.249-.088-.078-.091-.126-.214-.14-.282-.173-.084-.178-.051-.2-.022-.21-.057-.271-.253-.111-.327-.111-.148-.17-.19-.194a1.112,1.112,0,0,0-.394-.035c-.07.021-.2-.2-.317-.133s-.238-.079-.292-.108-.329.267-.327.475a.576.576,0,0,0,.151.415c.044.006-.01.194-.058.248s-.164-.057-.12-.1-.12-.265-.176-.354a.7.7,0,0,0-.281-.16c-.058.061-.112.125-.168.188a.468.468,0,0,1,.023.249c-.042.127-.148.146-.154.091,0-.024-.057-.042-.119-.051a12.682,12.682,0,0,0-2.864,6.658.776.776,0,0,1,.149.213c.035.112.229.185.266.208s.049-.215.022-.276.047-.1.046-.052a1.735,1.735,0,0,0,.244.328c.061.075.124.561.182.665a2.311,2.311,0,0,0,.8.358.974.974,0,0,1,.444.3c.035.058.275.087.326.11s.175.187.226.221a.279.279,0,0,1,.092.157c0,.026.317.145.394.23a.169.169,0,0,0,.227.025c.024-.036.086.169.119.239a.451.451,0,0,1,.015.271,3.43,3.43,0,0,1-.123.41,1.668,1.668,0,0,0-.143.618.732.732,0,0,0,.238.309.074.074,0,0,1-.013.134c-.051.006-.028.449.091.514a.447.447,0,0,1,.2.295" transform="translate(-371.337 -101.414)" fill="#fff"/>
        <path id="Path_31295" data-name="Path 31295" d="M514.685,155.642h0" transform="translate(-387.476 -117.173)" fill="#fff"/>
        <path id="Path_31296" data-name="Path 31296" d="M509.689,128.565c.152-.025.407-.067.425-.111a.262.262,0,0,0-.015-.176l.073,0c.058,0,.155-.318.216-.391a3.231,3.231,0,0,1,.493-.234,3.68,3.68,0,0,1,.335-.246c.07-.021.172-.184.156-.217s.237-.185.332-.225.144-.153.109-.157-.554.276-1.043.551a12.731,12.731,0,0,0-1.567,1.259c.152-.011.388-.04.487-.056" transform="translate(-383.35 -95.468)" fill="#fff"/>
        <path id="Path_31297" data-name="Path 31297" d="M535.124,148.066a4.471,4.471,0,0,0,.53-.592,1.393,1.393,0,0,0,.178-.464.442.442,0,0,1,.208-.192c.051-.014.216-.7.361-.851a2.511,2.511,0,0,0,.3-1.138,3.6,3.6,0,0,1,.127-.878,1.146,1.146,0,0,1,.274-.376,8.29,8.29,0,0,0,.519-.748,1.641,1.641,0,0,0,.2-.689c-.021-.1-.265-.163-.311-.116a.821.821,0,0,1-.348.086c-.073,0-.242-.393-.346-.474s-.2-.531-.258-.616a4.231,4.231,0,0,0-.281-.35c-.053-.049-.062-.288-.074-.354s.1.043.12.138a4.674,4.674,0,0,0,.373.608c.083.13.3.54.359.669s.545.064.7-.011a1.03,1.03,0,0,0,.364-.246c.007-.044.261-.161.331-.217s.133-.351.179-.4-.036-.329-.09-.412a.446.446,0,0,0-.357-.117c-.052.033-.162-.189-.2-.269s-.233-.181-.254-.237.052-.144.083-.163a1.623,1.623,0,0,1,.492.357,2.6,2.6,0,0,1,.24.4.521.521,0,0,0,.365.013.1.1,0,0,1,.16.026l.089-.015.31-.048a.621.621,0,0,1,.186.328.3.3,0,0,0,.15.173c.06.015.1.217.123.268s.194.354.231.481a3.1,3.1,0,0,0,.223.444,1.066,1.066,0,0,1,.066.314.229.229,0,0,0,.184.152c.07-.005.213-.449.245-.615a.466.466,0,0,1,.179-.3c.033,0,.059-.093.059-.129s.18-.031.2-.076.068-.339.132-.384a2.765,2.765,0,0,1,.372-.222c.079-.028.283.148.329.231a.717.717,0,0,1,.069.325c-.017.034.108.215.217.212s.142.137.145.188.148.2.176.262a.568.568,0,0,1,0,.283.982.982,0,0,0,.015.339,3.271,3.271,0,0,0,.48.506c.126.1.184-.21.121-.306s-.283-.323-.334-.39a.811.811,0,0,1-.04-.414c.018-.076.19.042.262.1a.545.545,0,0,1,.167.217c0,.041.45-.21.466-.482a2.783,2.783,0,0,1,.179-.651c.015-.072-.044-.17-.082-.173s.067-.208.192-.205.429-.332.5-.466a1.059,1.059,0,0,1,.232-.261,2.249,2.249,0,0,0,.134-.462,1.386,1.386,0,0,0-.084-.4,1.319,1.319,0,0,0-.147-.272.579.579,0,0,1-.037-.266c.017-.033.13-.07.142-.1s.142-.169.131-.23.081.079.14.13.123.374.2.411.371-.344.333-.59a.761.761,0,0,1,.159-.587,1.586,1.586,0,0,0,.288-.362,12.765,12.765,0,0,0-3.137-4.944.175.175,0,0,1-.048,0l-.109-.024c-.182-.039-.289-.234-.258-.279a.125.125,0,0,0,0-.086q-.152-.138-.312-.271c-.086,0-.177,0-.23,0a.984.984,0,0,1-.389-.124c-.043-.043-.186.038-.195.117s-.258.115-.282.175a.134.134,0,0,1-.177.03c-.025-.033-.256.082-.372.1a1.971,1.971,0,0,0-.381.132.611.611,0,0,0-.193.192c-.019.05-.167.132-.214.151s-.038.234.023.264-.113-.026-.19-.066-.163.092-.187.137-.1-.027-.093-.091-.19-.116-.216-.065-.16-.017-.215-.046-.3.22-.384.31a1.059,1.059,0,0,1-.594.125c-.08-.033-.157.189-.089.2s-.173-.011-.3,0a2.144,2.144,0,0,0-.608.234.1.1,0,0,1-.165-.067c0-.053-.146-.1-.19-.116s-.128.287-.2.345-.168-.236-.347-.284-.46-.222-.54-.242a1.079,1.079,0,0,1-.283-.237.8.8,0,0,0-.348-.089,1.148,1.148,0,0,0-.375.19c-.065.054-.16.043-.191.063s-.3.282-.4.364a3.2,3.2,0,0,0-.344.521.245.245,0,0,1-.181.1c-.034,0-.063.1-.063.131s-.308.195-.34.335a3.235,3.235,0,0,0,.031.573c0,.113.113.338.2.342s.041.193.019.245.054.112.051.157-.216.109-.281.134a.5.5,0,0,0-.189.23c-.012.048-.218.083-.285.148a1.462,1.462,0,0,1,.058-.148.245.245,0,0,0-.047-.232c-.032-.027-.047-.4-.1-.477a1.681,1.681,0,0,0-.213-.241c-.032-.025.022-.123.041-.165s-.172-.065-.226-.034-.081.4-.1.5a.327.327,0,0,0,.126.262c.031.007.023.188-.045.194s-.129.269-.094.33-.048.178-.088.206.257.011.394.008.242.057.228.068-.261.048-.3.106-.211.17-.243.215.055.144.126.139.151.244.206.29.034.174.011.21-.356-.024-.482.007-.286.3-.3.4a2.494,2.494,0,0,0,.037.47c.016.08.28.13.333.17s.308,0,.36.025.222-.255.256-.386.3-.37.358-.459.346-.078.418-.125.031.221.065.367.312.128.271-.009.028-.2.039-.147.278.158.329.236.036.241-.023.239-.062.179,0,.2.147-.2.214-.238.121-.174.09-.184.057-.136.1-.1a1.6,1.6,0,0,0-.257-.387c-.113-.114-.033-.064.178.113l.147.206c.029.037.065.149.091.19l.034.061a1.41,1.41,0,0,1,.054.322.231.231,0,0,0,.185.152c.069,0,.123.033.109.036s.046.138.115.142.1-.175.028-.18-.059-.263-.067-.375.05-.205.073-.205,0,.231,0,.284a.728.728,0,0,0,.063.234l.071.054.161.124c.23-.068.54-.016.529.032s.17.058.182-.018.019,0,.019.055-.152.258-.177.353-.558.03-.787.013-.568.061-.593.129-.383-.157-.547-.226-.292-.319-.326-.351.028-.114.012-.163-.39-.061-.5-.019-.67.1-.8.157a.718.718,0,0,1-.395-.015c-.062-.011-.211.172-.286.205a1,1,0,0,0-.213.578l-.1.2-.066.127a2.908,2.908,0,0,0-.45.706,4.51,4.51,0,0,0-.108,1,3.208,3.208,0,0,0,.254.843,2.026,2.026,0,0,0,.515.5,1.829,1.829,0,0,0,.611.078.377.377,0,0,0,.309-.258l.179.018.082.008c0,.1.269.18.334.216a.566.566,0,0,0,.291-.007c.051-.015.109.453.072.588a2.69,2.69,0,0,0,.13.752c.039.143.2.533.218.674a6.664,6.664,0,0,1-.114.769,3.03,3.03,0,0,0,.262.777,2.623,2.623,0,0,1,.106.572c0,.079.242.551.3.745s.665.242.828.147" transform="translate(-399.573 -99.115)" fill="#fff"/>
        <path id="Path_31298" data-name="Path 31298" d="M590.179,172.784c.016.034.17-.088.261-.1s.15-.261.078-.278-.163-.209-.215-.232-.153.082-.149.156-.167.105-.2.168-.03.107.005.1.2.152.219.187" transform="translate(-444.128 -129.616)" fill="#fff"/>
        <path id="Path_31299" data-name="Path 31299" d="M588.906,179.21c.046-.017-.005-.26-.1-.28s-.359.321-.309.516.106.184.133.143.185.026.232.042.046-.032,0-.1a.363.363,0,0,1,.045-.316" transform="translate(-443.041 -134.705)" fill="#fff"/>
        <path id="Path_31300" data-name="Path 31300" d="M585.247,177.12c.01-.087.027-.358.042-.413s-.148-.21-.228-.238-.337.529-.521.629a.523.523,0,0,0-.2.516c.05.079.434.12.5.179s.142-.01.183-.019.028-.036.013-.046.134-.167.156-.268.046-.253.058-.34" transform="translate(-439.904 -132.852)" fill="#fff"/>
        <path id="Path_31301" data-name="Path 31301" d="M582.833,182.806a.287.287,0,0,0-.327.087c-.014.055.555.146.744.2s.307.068.264.036-.537-.265-.681-.32" transform="translate(-438.536 -137.611)" fill="#fff"/>
        <path id="Path_31302" data-name="Path 31302" d="M588.062,166.94c.046-.064-.063-.362-.118-.294s-.015.241,0,.3.071.056.116-.008" transform="translate(-442.609 -125.45)" fill="#fff"/>
        <path id="Path_31303" data-name="Path 31303" d="M589.116,169.878c.033-.077-.04-.162-.163-.188s-.105.345-.051.393.182-.128.214-.205" transform="translate(-443.32 -127.749)" fill="#fff"/>
        <path id="Path_31304" data-name="Path 31304" d="M592.49,179.142c.148.1.477.055.487-.143-.146-.1-.5-.08-.487.143" transform="translate(-446.053 -134.715)" fill="#fff"/>
        <path id="Path_31305" data-name="Path 31305" d="M591.746,160.1a.207.207,0,0,0-.074.2h-.025c-.05,0-.055.194,0,.228s.176-.152.241-.2a.358.358,0,0,1,.215-.057.568.568,0,0,0,.255-.076.22.22,0,0,0,.072-.087c-.03-.143-.064-.282-.1-.422-.061.045-.13.094-.162.122-.066.059-.34.237-.42.292" transform="translate(-445.388 -120.215)" fill="#fff"/>
        <path id="Path_31306" data-name="Path 31306" d="M578.49,177.134h0c-.025-.019-.028-.021,0,0" transform="translate(-435.499 -133.343)" fill="#fff"/>
        <path id="Path_31307" data-name="Path 31307" d="M579.47,177.818a1.539,1.539,0,0,0-.392-.453l-.062-.1-.067-.112c-.061-.122-.244-.217-.259-.253s-.074.106-.137.065c.033.022.1.071.2.139a8.787,8.787,0,0,1,.577,1.011c.074.058.2-.175.142-.3" transform="translate(-435.561 -133.172)" fill="#fff"/>
        <path id="Path_31308" data-name="Path 31308" d="M571.606,174.9c-.046.094.244.293.266.247a.542.542,0,0,0-.089-.326c-.051-.05-.131-.015-.177.079" transform="translate(-430.327 -131.598)" fill="#fff"/>
        <path id="Path_31309" data-name="Path 31309" d="M555.83,187.991c.011.1.212.177.269.161a1.1,1.1,0,0,0,.243-.4,1.987,1.987,0,0,0,.041-.315.287.287,0,0,1,.049-.155.542.542,0,0,0,.081-.225,6.113,6.113,0,0,0-.124-.727c0-.093-.107.047-.134.14s-.288.282-.346.361a.791.791,0,0,0-.1.392.585.585,0,0,1-.048.279,2.7,2.7,0,0,0,.068.488" transform="translate(-418.398 -140.254)" fill="#fff"/>
        <path id="Path_31310" data-name="Path 31310" d="M518.053,207.4h.175c.031-.19-.184-.158-.175,0" transform="translate(-390.013 -156.038)" fill="#fff"/>
        <path id="Path_31311" data-name="Path 31311" d="M520.812,126.24a.59.59,0,0,1-.3-.065.751.751,0,0,0-.4-.031c-.083.035-.026-.2.088-.226s.018-.187-.1-.188-.422-.045-.492-.03-.209-.049-.26-.057a5.243,5.243,0,0,1-.582.1,4.2,4.2,0,0,0-.68.034c-.091.024-.157.2-.144.265s-.406.063-.536.064a4.339,4.339,0,0,0-1.018.253c-.184.1-.327.358-.266.363s-.1.151-.2.185-.334.049-.39.1.059.093.081.131.087-.032.151,0a3.1,3.1,0,0,0,.319.072c.056.022-.172.065-.28.072s-.083.218,0,.247.313.06.335.024.268.04.379.053.194.287.227.347a.909.909,0,0,1,.033.331c-.008.061.2.171.231.132s.026.1-.055.088-.028.227.071.26.031.177-.025.221-.027.181-.086.23.209.513.208.752.147.434.2.434.254.048.279.1.121-.035.158-.075a2.119,2.119,0,0,0,.178-.255,6.365,6.365,0,0,0,.213-.632c.018-.051.242-.019.294-.045a2.375,2.375,0,0,0,.24-.177c.042-.034.363-.17.45-.233s.235-.335.3-.393-.036-.041-.121-.1a.091.091,0,0,1-.023-.151,1.026,1.026,0,0,1,.372.077c.089.036.258-.088.194-.136s-.03-.045,0-.025.065-.157.032-.191.261-.25.209-.454.081-.413.16-.416.057-.23-.039-.252-.005-.042.03-.074a.482.482,0,0,0,.061-.276c-.021-.039.145-.083.174-.13a.807.807,0,0,1,.288-.153c.067-.015.1-.194.031-.185" transform="translate(-388.105 -94.59)" fill="#fff"/>
        <path id="Path_31312" data-name="Path 31312" d="M541.682,128.71c-.091-.031-.275.069-.252.126s-.15-.073-.271-.011-.154.275-.1.3.1.2.1.229.236.009.3-.039.052.171-.007.23.021.179.086.188.154.163.22.162.18-.259.206-.356.25-.02.352.011.139-.355.029-.413-.248-.029-.294-.072a.382.382,0,0,0-.175-.094c-.05-.007-.1-.235-.188-.265" transform="translate(-407.315 -96.894)" fill="#fff"/>
        <path id="Path_31313" data-name="Path 31313" d="M545.277,128.485a.619.619,0,0,0,.425-.165c.045-.041-.5-.152-.7-.158s-.372.022-.37.063a2.011,2.011,0,0,0,.65.26" transform="translate(-410.02 -96.485)" fill="#fff"/>
        <path id="Path_31314" data-name="Path 31314" d="M533.79,148.6c-.047-.02-.074.158-.062.226s.175.061.246.049a.137.137,0,0,0,.123-.127c0-.058-.1-.323-.143-.323s-.116.194-.164.175" transform="translate(-401.812 -111.743)" fill="#fff"/>
        <path id="Path_31315" data-name="Path 31315" d="M533.511,140.206c-.038-.065-.319-.058-.389-.062a.79.79,0,0,1-.319-.119c-.039-.045-.071.174-.135.2s.032.07.059.047,0,.112-.032.158.188.079.213.15a.18.18,0,0,0,.2.1c.084-.014.255-.1.314-.107s.125-.306.089-.371" transform="translate(-401 -105.412)" fill="#fff"/>
        <path id="Path_31316" data-name="Path 31316" d="M557.685,132.685c.1-.1.495-.228.54-.328a.127.127,0,0,0-.068-.183.159.159,0,0,0-.1.066c-.01.017-.467.124-.607.192a1.622,1.622,0,0,0-.363.232,5.829,5.829,0,0,0-.19.564c-.034.051.152.236.235.287a.308.308,0,0,0,.227.014,1.181,1.181,0,0,0-.086-.437c-.044-.11.314-.309.411-.408" transform="translate(-419.254 -99.506)" fill="#fff"/>
        <path id="Path_31317" data-name="Path 31317" d="M558.116,128.757c.15.149.232-.066.4-.045,0-.3-.413-.2-.4.045" transform="translate(-420.174 -96.758)" fill="#fff"/>
        <path id="Path_31318" data-name="Path 31318" d="M569.948,129.316c0,.055.417.1.54.079s-.025-.213-.2-.2-.329.067-.335.123" transform="translate(-429.082 -97.261)" fill="#fff"/>
        <path id="Path_31319" data-name="Path 31319" d="M508.235,141.929c-.044.041-.007.247.078.253s.219-.311.322-.248.173.089.156.055a3,3,0,0,0-.347-.186c-.037-.022-.165.086-.21.126" transform="translate(-382.608 -106.753)" fill="#fff"/>
        <path id="Path_31320" data-name="Path 31320" d="M512.646,170.206c0,.035.183.03.214-.027s.014-.1-.036-.1-.178.093-.178.128" transform="translate(-385.943 -128.042)" fill="#fff"/>
        <path id="Path_31321" data-name="Path 31321" d="M506.516,168.156c.088-.017.046.126.068.176s.231.092.273.127.152-.065.236-.054-.028-.291-.17-.283-.253-.128-.285-.144a2.206,2.206,0,0,1-.245-.153,2,2,0,0,0-.527-.069.4.4,0,0,0-.276.165c-.019.042.194.069.254.037a.607.607,0,0,1,.4.1.315.315,0,0,0,.269.094" transform="translate(-380.629 -126.294)" fill="#fff"/>
        <path id="Path_31322" data-name="Path 31322" d="M507.788,170.4c0,.035.185.013.229.015s.043-.03,0-.067-.227.017-.227.053" transform="translate(-382.286 -128.233)" fill="#fff"/>
        <path id="Path_31323" data-name="Path 31323" d="M508.054,166.729c-.049-.019-.087.057-.087.092a.062.062,0,0,0,.059.065c.032,0,.076-.138.028-.157" transform="translate(-382.42 -125.518)" fill="#fff"/>
        <path id="Path_31324" data-name="Path 31324" d="M509.411,166.662a.181.181,0,0,0-.118-.065c-.025,0-.041.061-.037.136s.172-.036.155-.071" transform="translate(-383.39 -125.421)" fill="#fff"/>
        <path id="Path_31325" data-name="Path 31325" d="M510.342,167.775c.075-.037.084-.126.04-.121s-.127-.129-.175-.148-.088.08-.088.123.027.074.06.065.087.116.163.081" transform="translate(-384.04 -126.104)" fill="#fff"/>
        <path id="Path_31326" data-name="Path 31326" d="M593.614,180.14c-.039.021-.225.042-.249.006s-.062.076-.1.094-.018.116.042.086c.041-.021.219.077.362.168.029-.142.054-.286.078-.43-.052.027-.106.064-.13.077" transform="translate(-446.62 -135.559)" fill="#fff"/>
        <path id="Path_31327" data-name="Path 31327" d="M512.74,132.852c-.013-.014-.067.025-.043.049s.064-.023.043-.049" transform="translate(-385.977 -100.014)" fill="#fff"/>
        <path id="Path_31328" data-name="Path 31328" d="M518.447,149.86c-.01-.016-.064.025-.044.05s.067-.025.044-.05" transform="translate(-390.273 -112.818)" fill="#fff"/>
        <rect id="Rectangle_1936" data-name="Rectangle 1936" width="5.777" height="2.287" transform="translate(154.623 46.535)" fill="#0963a5"/>
        <rect id="Rectangle_1937" data-name="Rectangle 1937" width="5.777" height="7.463" transform="translate(163.861 41.358)" fill="#0963a5"/>
        <rect id="Rectangle_1938" data-name="Rectangle 1938" width="5.777" height="18.657" transform="translate(173.099 30.164)" fill="#0963a5"/>
        <rect id="Rectangle_1939" data-name="Rectangle 1939" width="5.778" height="30.034" transform="translate(182.336 18.788)" fill="#0963a5"/>
        <path id="Path_31329" data-name="Path 31329" d="M736.435,53.761l2.143,2.78,2.143,2.782H732.15l2.143-2.782Z" transform="translate(-551.195 -40.473)" fill="#0963a5"/>
        <path id="Path_31330" data-name="Path 31330" d="M261.074,293.078H253.7a.59.59,0,0,1,0-1.18h7.374a.59.59,0,0,1,0,1.18" transform="translate(-190.553 -219.753)" fill="#333"/>
        <path id="Path_31331" data-name="Path 31331" d="M233.261,191.97a9.181,9.181,0,0,1,18.363,0,16.688,16.688,0,0,1-3.678,9c-1.013,1.344-.846,4.047-.837,4.047h-9.354c.008,0,.193-2.7-.814-4.047a16.655,16.655,0,0,1-3.68-9" transform="translate(-175.609 -137.611)" fill="#e0c786"/>
        <path id="Path_31332" data-name="Path 31332" d="M260.878,272.733v4.8a.6.6,0,0,1-.6.6h-8.149a.6.6,0,0,1-.594-.6v-4.8Z" transform="translate(-189.369 -205.325)" fill="#333"/>
        <path id="Path_31333" data-name="Path 31333" d="M249.3,273.644h9.726a.471.471,0,0,0,0-.941H249.3a.471.471,0,0,0,0,.941" transform="translate(-187.333 -205.302)" fill="#818181"/>
        <path id="Path_31334" data-name="Path 31334" d="M259.028,279.05H249.3a.471.471,0,0,0,0,.941h9.726a.471.471,0,0,0,0-.941" transform="translate(-187.332 -210.081)" fill="#818181"/>
        <path id="Path_31335" data-name="Path 31335" d="M259.028,285.4H249.3a.47.47,0,0,0,0,.941h9.726a.47.47,0,1,0,0-.941" transform="translate(-187.332 -214.859)" fill="#818181"/>
      </g>
    </g>
    <g id="Group_5184" data-name="Group 5184" transform="translate(0 -0.003)">
      <g id="Group_5183" data-name="Group 5183" clip-path="url(#clip-path-2)">
        <path id="Path_31337" data-name="Path 31337" d="M91.783,281.914l-.579-.7c.02-.016.487-.4,1.4-1.1l.555.722c-.9.7-1.376,1.083-1.381,1.086m2.782-2.148-.545-.729c.457-.342.936-.694,1.423-1.049l.536.735c-.484.353-.959.7-1.414,1.043M97.4,277.7l-.529-.741q.681-.486,1.442-1.018l.522.746q-.757.53-1.435,1.013m2.879-2.014-.516-.751q.7-.481,1.458-.992l.51.754q-.754.508-1.452.988m2.911-1.966-.5-.758q.715-.475,1.473-.97l.5.762q-.755.493-1.467.966m2.941-1.921-.493-.766q.726-.467,1.486-.948l.487.769q-.757.48-1.481.945m2.968-1.879-.482-.772q.735-.458,1.5-.928l.477.775q-.762.468-1.494.924m2.993-1.839-.472-.779q.743-.45,1.51-.908l.467.782q-.765.457-1.5.9m3.016-1.8-.462-.785q.749-.441,1.522-.889l.457.787q-.77.447-1.517.886m3.039-1.763-.452-.79q.756-.432,1.532-.87l.447.793q-.774.436-1.527.867m3.06-1.725-.442-.8q.761-.424,1.542-.852l.438.8q-.778.426-1.538.849m3.081-1.689-.434-.8q.769-.415,1.553-.833l.428.8q-.782.417-1.547.83m3.1-1.652-.424-.806q.773-.407,1.562-.815l.418.808q-.786.408-1.557.813m3.119-1.616-.414-.811q.779-.4,1.571-.8l.41.813q-.79.4-1.566.794m3.137-1.58-.405-.815q.783-.389,1.58-.779l.4.817q-.794.389-1.575.777m3.155-1.544-.4-.82q.789-.381,1.589-.761l.391.822q-.8.379-1.584.759m3.172-1.509-.387-.824q.793-.371,1.6-.743l.382.826q-.8.371-1.592.741m3.189-1.473-.377-.829q.8-.363,1.605-.725l.373.831q-.807.361-1.6.723m3.2-1.437-.368-.833q.8-.354,1.613-.707l.363.835q-.81.352-1.608.705m3.221-1.4-.359-.836q.806-.345,1.621-.689l.354.838q-.813.343-1.616.687m3.236-1.366-.35-.841q.81-.336,1.629-.671l.345.842q-.817.334-1.624.669m3.251-1.33-.34-.844q.813-.328,1.635-.653l.336.846q-.82.325-1.631.651m3.265-1.294-.331-.848q.817-.318,1.642-.635l.327.85q-.824.316-1.638.633m3.28-1.258-.322-.852q.821-.309,1.65-.617l.317.854q-.826.306-1.645.615m3.293-1.222-.312-.855q.824-.3,1.656-.6l.308.857q-.83.3-1.651.6m3.306-1.185-.3-.858q.828-.292,1.663-.581l.3.86q-.832.288-1.658.579m3.319-1.149-.293-.862q.831-.282,1.67-.562l.288.863q-.835.279-1.664.561m3.331-1.112-.284-.865q.834-.273,1.675-.544l.279.866q-.839.27-1.671.542m3.344-1.075-.274-.868q.837-.264,1.681-.525l.269.87q-.842.26-1.676.524m3.356-1.039-.265-.871q.84-.255,1.687-.507l.26.873q-.845.251-1.682.5m3.366-1-.255-.874q.843-.245,1.692-.488l.25.875q-.847.241-1.687.487m3.378-.964-.245-.877q.846-.237,1.7-.47l.241.878q-.849.232-1.693.468m3.388-.926-.235-.879q.848-.227,1.7-.45l.23.88q-.852.223-1.7.449m3.4-.889-.226-.882q.851-.218,1.708-.431l.22.883q-.854.213-1.7.43m3.408-.851-.216-.884q.853-.208,1.712-.412l.211.886q-.857.2-1.707.411m3.417-.813-.206-.887q.856-.2,1.716-.393l.2.888q-.858.195-1.711.392m3.426-.774-.2-.889q.858-.189,1.721-.374l.191.89q-.861.185-1.716.373m3.434-.736-.186-.891q.86-.179,1.725-.355l.181.892q-.863.175-1.72.354m3.442-.7-.176-.893q.861-.17,1.729-.335l.171.894q-.865.165-1.724.335m3.449-.659-.166-.895q.864-.16,1.733-.316l.161.9q-.867.155-1.728.315m3.457-.62-.156-.9q.865-.15,1.736-.3l.151.9q-.868.146-1.731.3m3.464-.581-.146-.9q.868-.14,1.739-.277l.141.9q-.87.136-1.734.276m3.47-.542-.136-.9q.869-.131,1.743-.257l.13.9q-.871.126-1.737.256m3.476-.5-.125-.9q.87-.121,1.745-.237l.121.9q-.873.116-1.74.237m3.481-.464-.115-.9q.872-.111,1.748-.218l.11.9q-.873.106-1.742.217m3.486-.424-.1-.9q.873-.1,1.75-.2l.1.9q-.875.1-1.746.2M241,225.03l-.095-.905q.874-.091,1.752-.178l.089.906q-.875.087-1.747.178m3.495-.345-.085-.906q.875-.082,1.754-.158l.08.907q-.878.076-1.749.158m3.5-.306-.074-.907q.876-.072,1.756-.138l.069.908q-.877.067-1.751.138m3.5-.266-.064-.908q.875-.061,1.754-.118l.058.908q-.876.056-1.748.118m3.5-.226-.053-.909.079,0,.054.909Z" transform="translate(-68.662 -167.889)" fill="#d1d3d4"/>
        <path id="Path_31338" data-name="Path 31338" d="M747.7,211.867l-8.636,5.211,2-4.587-2.826-4.133Z" transform="translate(-555.784 -156.883)" fill="#d1d3d4"/>
        <rect id="Rectangle_1940" data-name="Rectangle 1940" width="80.593" height="1.027" transform="translate(85.155 185.717)" fill="#223c56"/>
      </g>
    </g>
  </g>
</svg>
