<svg id="Group_3894" data-name="Group 3894" xmlns="http://www.w3.org/2000/svg" xmlns:xlink="http://www.w3.org/1999/xlink" width="44.836" height="55.323" viewBox="0 0 44.836 55.323">
  <defs>
    <clipPath id="clip-path">
      <rect id="Rectangle_1327" data-name="Rectangle 1327" width="44.836" height="55.323" fill="none"/>
    </clipPath>
  </defs>
  <g id="Group_3893" data-name="Group 3893" clip-path="url(#clip-path)">
    <path id="Path_30486" data-name="Path 30486" d="M32.513,44.092l3.359,3.277a.666.666,0,0,0,.929,0L43.794,40.6" transform="translate(-15.362 -19.181)" fill="none" stroke="#00aa87" stroke-linecap="round" stroke-width="2"/>
    <path id="Path_30487" data-name="Path 30487" d="M24.485,47.149V45.5a7.377,7.377,0,0,0-2.623-5.578,13.794,13.794,0,1,1,17.963.013,7.127,7.127,0,0,0-2.434,5.422v1.79" transform="translate(-8.06 -7.403)" fill="none" stroke="#00aa87" stroke-linecap="round" stroke-width="2"/>
    <path id="Path_30488" data-name="Path 30488" d="M24.563,33.374A9.835,9.835,0,0,1,34.4,23.54" transform="translate(-11.606 -11.122)" fill="none" stroke="#00aa87" stroke-linecap="round" stroke-width="2"/>
    <path id="Path_30489" data-name="Path 30489" d="M24.563,33.374A9.835,9.835,0,0,1,34.4,23.54" transform="translate(-11.606 -11.122)" fill="none" stroke="#00aa87" stroke-linecap="round" stroke-width="2"/>
    <path id="Path_30490" data-name="Path 30490" d="M25.315,80.763h11.15a8.176,8.176,0,0,1,8.175,8.175v4.016h-27.5V88.938A8.176,8.176,0,0,1,25.315,80.763Z" transform="translate(-8.098 -38.159)" fill="none" stroke="#1a184e" stroke-linecap="round" stroke-width="2"/>
    <line id="Line_388" data-name="Line 388" y2="6.798" transform="translate(16.389 45.36)" fill="none" stroke="#1a184e" stroke-linecap="round" stroke-width="2"/>
    <line id="Line_389" data-name="Line 389" y2="6.798" transform="translate(29.654 45.36)" fill="none" stroke="#1a184e" stroke-linecap="round" stroke-width="2"/>
    <line id="Line_390" data-name="Line 390" y2="3.857" transform="translate(22.765 0.528)" fill="none" stroke="#00aa87" stroke-linecap="round" stroke-width="2"/>
    <line id="Line_391" data-name="Line 391" x2="2.727" y2="2.727" transform="translate(7.185 6.693)" fill="none" stroke="#00aa87" stroke-linecap="round" stroke-width="2"/>
    <line id="Line_392" data-name="Line 392" x2="3.857" transform="translate(0.528 22.07)" fill="none" stroke="#00aa87" stroke-linecap="round" stroke-width="2"/>
    <line id="Line_393" data-name="Line 393" y1="2.727" x2="2.727" transform="translate(6.693 34.924)" fill="none" stroke="#00aa87" stroke-linecap="round" stroke-width="2"/>
    <line id="Line_394" data-name="Line 394" x1="2.727" y1="2.727" transform="translate(34.924 35.415)" fill="none" stroke="#00aa87" stroke-linecap="round" stroke-width="2"/>
    <line id="Line_395" data-name="Line 395" x1="3.857" transform="translate(40.452 22.766)" fill="none" stroke="#00aa87" stroke-linecap="round" stroke-width="2"/>
    <line id="Line_396" data-name="Line 396" x1="2.727" y2="2.727" transform="translate(35.415 7.185)" fill="none" stroke="#00aa87" stroke-linecap="round" stroke-width="2"/>
  </g>
</svg>
