<svg id="Group_3897" data-name="Group 3897" xmlns="http://www.w3.org/2000/svg" xmlns:xlink="http://www.w3.org/1999/xlink" width="52.766" height="46.52" viewBox="0 0 52.766 46.52">
  <defs>
    <clipPath id="clip-path">
      <rect id="Rectangle_1328" data-name="Rectangle 1328" width="52.766" height="46.52" fill="none"/>
    </clipPath>
  </defs>
  <line id="Line_397" data-name="Line 397" y2="24.315" transform="translate(5.387 11.255)" fill="none" stroke="#1a184e" stroke-linecap="round" stroke-width="2"/>
  <g id="Group_3896" data-name="Group 3896" transform="translate(0 0)">
    <g id="Group_3895" data-name="Group 3895" clip-path="url(#clip-path)">
      <path id="Path_30491" data-name="Path 30491" d="M13.41,11.854A10.853,10.853,0,0,1,32.053,4.3a.746.746,0,0,1,0,1.048L30.32,7.08a.737.737,0,0,0,.013,1.055l8.193,7.8a.737.737,0,0,1,.088.967l-2.032,2.8a.738.738,0,0,1-.789.278L28.147,17.91a.723.723,0,0,0-.478.033c-1.3.56-7.8,2.992-7.692-4.618" transform="translate(-8.023 -0.599)" fill="none" stroke="#1a184e" stroke-linecap="round" stroke-width="2"/>
      <line id="Line_398" data-name="Line 398" x2="25.175" transform="translate(2.629 35.57)" fill="none" stroke="#1a184e" stroke-linecap="round" stroke-width="2"/>
      <path id="Path_30492" data-name="Path 30492" d="M49.145,42.92s-1.42,3.031,3.118,7.8C57.593,55.547,54.9,61.054,54.9,61.054" transform="translate(-29.276 -25.678)" fill="none" stroke="#1a184e" stroke-linecap="round" stroke-width="2"/>
      <path id="Path_30493" data-name="Path 30493" d="M34.165,106.294H1.667A.668.668,0,0,1,1,105.626V101.25a.667.667,0,0,1,.667-.667H3.177" transform="translate(-0.598 -60.176)" fill="none" stroke="#1a184e" stroke-linecap="round" stroke-width="2"/>
      <path id="Path_30494" data-name="Path 30494" d="M48.492,88.543V93.38H34.58" transform="translate(-20.689 -52.973)" fill="none" stroke="#1a184e" stroke-linecap="round" stroke-width="2"/>
      <line id="Line_399" data-name="Line 399" y2="4.837" transform="translate(2.629 35.57)" fill="none" stroke="#1a184e" stroke-linecap="round" stroke-width="2"/>
      <path id="Path_30495" data-name="Path 30495" d="M89.268,49.087s9.678-1,10-11.7v-24.3a.209.209,0,0,0-.209-.209H96.345a.209.209,0,0,1-.179-.317l4.525-7.493a.209.209,0,0,1,.356,0l4.692,7.493a.209.209,0,0,1-.177.32h-2.856a.209.209,0,0,0-.209.209V26.622" transform="translate(-53.407 -2.969)" fill="none" stroke="#00aa87" stroke-linecap="round" stroke-width="2"/>
      <path id="Path_30496" data-name="Path 30496" d="M83.96,65.8V50.67a.183.183,0,0,0-.183-.183H81.4a.183.183,0,0,1-.157-.278L85.2,43.643a.183.183,0,0,1,.312,0l4.111,6.566a.183.183,0,0,1-.155.28h-2.5a.183.183,0,0,0-.183.183V62.534" transform="translate(-48.587 -26.058)" fill="none" stroke="#00aa87" stroke-linecap="round" stroke-width="2"/>
      <path id="Path_30497" data-name="Path 30497" d="M94.89,95.27a.4.4,0,1,1-.4-.4.4.4,0,0,1,.4.4" transform="translate(-56.289 -56.757)" fill="#00aa87"/>
      <path id="Path_30498" data-name="Path 30498" d="M122,63.283a.4.4,0,1,1-.4-.4.4.4,0,0,1,.4.4" transform="translate(-72.508 -37.62)" fill="#00aa87"/>
    </g>
  </g>
</svg>
